<mxfile host="app.diagrams.net" modified="2024-03-28T12:35:39.802Z" agent="Mozilla/5.0 (Macintosh; Intel Mac OS X 10_15_7) AppleWebKit/537.36 (KHTML, like Gecko) Chrome/123.0.0.0 Safari/537.36" etag="jRf0x488iGwMM5UN60wT" version="23.1.7" type="device">
  <diagram name="Page-1" id="niED-qJsdG_9JHrUanrO">
    <mxGraphModel dx="1581" dy="855" grid="0" gridSize="10" guides="1" tooltips="1" connect="1" arrows="1" fold="1" page="1" pageScale="1" pageWidth="1100" pageHeight="850" background="#000000" math="0" shadow="0">
      <root>
        <mxCell id="0" />
        <mxCell id="1" parent="0" />
        <mxCell id="w5QW8rx5QOI1nEsf-yty-9" value="" style="shape=image;verticalLabelPosition=bottom;labelBackgroundColor=default;verticalAlign=top;aspect=fixed;imageAspect=0;image=data:image/webp,UklGRhobAABXRUJQVlA4IA4bAADwugCdASoqA8gBPkkkkUYioiIhIbNImFAJCWlu4XaxEYEv5Abl32v8gPyw6ujenuz+SOZjePfmf9s/Mv+09tn8+f6r3AP4B/H/7r/Yf26/vHdG8wH7D/8f/De+N6Df8b6gH9B/uX/27Af0AP3M9Kf9pfgz/af/sf474EP2H/+HWAdQ/1D/wPaZ/g/7N6B9bj235QET75V9sP2X+A/cr2M/5Xgb8vv8r1Avxz+ef5j8xODQth6AXuX9d/53Gj9m/9x7gHfjeCnQA/of9z/3/qDfVPn6+nv2s+Bb9dvSu///uU/cD//+7D+1P//DCHoRo4x01aa6fFPpq010+KfTVprp8U+mrTXT4p9NWmunxT6atNdPin01aa6fFPpq010+KfTVprp8U+mrTXT4p9NWmunxT6atNdPin01aa6fFPpq010+KfTVprp8U+mrTXT4p9NWmunxT6atNdPin01aa6fFPpq010+KfTVprp8U+mrTXT4p9NWmunxT6atNdPin01aa6fFPpq010+KfTVprp8U+mrTXT4p9NWmunxT6atNdPin01aa6fFPpq010+KfTVprp8U+mrTXT4p9NWmunxT6atNdPin01aa6fFPpq010+KfTVprp8U+mrTXT4p9NWmunxT6atNdPin01aa5YhJC/tCl76qncOaQMVqgnWeCvNWmunxT6atNdPin01aa6fFPpqmGwmVI9Jxba/y5GfpSeghApG3gEzNx0N5UodTyfp0UvICC271TLQu3nIJejjHSXZkOL6NoFp6+ooWsXneKsBZ6cSF0p15oQAP7KGuvrp6DoxIcesuKD5/l9JP0i1eCtYGldZwSP7dIF5tfy4r7Xj344jo2TVQRlTZwOmFphv81XbZx6LJV8Pj+tTYsadUJ4M6dibhoGmqwRAiK73ZV821UWSl7YohlR4pf+sJoWzNv8/hwPKg+aH/4EZ1z8rtFhyhFeuHg21IqqbzRxjjDS/d1dQmX0Em6+oHjosgPCfnCPwjBuoBeJrKbqQX2eCedRbLupK1qQfUqXtU4SJZdln58QEWNUsh/WLvUCYs8TgMwA53/2sIf+a1XDrX/mfRfxRdp/5Ni0Z2nR38/crQanye8WYv9r4luogCfW80Qex2E7QRnruwhGhckBnmotm6AGhn4oZGgm9txZWVl5G3EL2X80ocYKcG7Wt/NHGJpxTJjgSdc0Ha2xewOccLkHtN3OSsqia+yW6C7YYs1Ca3m34xquIkzlNhsXXCa7LiwShowWGZnVf3uuL5jDhO7nclcKn/dU0hY89l5Fl95SGX2eXFS8tEFgci1Ee5O/k4gASXeMSN8tOG+88ARMubrkLRTkNF35O+NuR9kZ1EQeO5QHnCwVXclyLLk7BbzjbnHrt5jLoE9H9SRemmSO/RaobLmdo6YCNHGJhPjoz4lTYUwcCzuDvOkUtoQNWBPDfPEs7TF6K3TyQTKxfN+SZE66O7Ctr5SdAO78NvYyommE3mH7T3gIPKXu/T+ui91rlzIclr2pwatJR1R3Fjg5K8yDBO7OMyq887Pzx8hKTPeDnLw1KpHsRe1moGQ8tMjcMfbRQVO3OXck4tgKeGqeCox01Z18G5CbF6bL+VIcH3p9CJTYRI+o7s0Zut5jas8IQQxloq7KN80IOhEVPpq1VxorvE8tNdPioGYo2unxT6atNoOlprp8U+mrTXT4p9NWmunxT6atNdPin01aa6fFPpq010+KfTVprp8U+mrTXT4p9NWmunxT6atNdPin01aa6fFPpq010+KfTVprp8U+mrTXT4p9NWmunxT6atNdPin01aa6fFPpq010+KfTVprp8U+mrTXT4p9NWmunxT6atNdPin01aa6fFPpq010+KfTVprp8U+mrTXT4p9NWmunxT6atNdPin01aa6fFPpq010+KfTVprp8U+mrTXT4p9NWmunxT6atNdPin01aa6fFPpq010+KfTVprp8U+mrTXT4p9NWmunxT6atNdPin01aa6fFPpIAAP7/5N8AAAAAAAAAAAAAAAAAAAAAAAAAAAAAAAAAFnv4xp6PC49KaUWKEOS/N4rf3K/j5DVoHeFk9FUneFORgjFSnbkPGX0vNotfn90CW7bBltFOsF+TLRy4A/eY99vehbvKxK6aM0iGBSHODylN5jDaLiyVEBuUOcVfNoxDK+E5cA39cAzGw6lAQShyS1qWT4jiPmXuaV0QtQoM6Soo31XH5EHlHS16TEAixqF3Mc1cWacZ7Xj/0cCkIxnSbkGCIeY4H2RzGj+x524J9ehsrTX7mrOn+4cxHvFaBhV1FrGkSLu4uY5VoKzm+UkNXbEiCyOtAAjGnZ8QHtdA1eA8n6PpMxPeNaie9528lENr0vs3ZWuY35Lnv7y/y+3fB0q13MJrirR/R0y74jLBKh/RCcjK5ZBBBthCwG1g5sdrrqRiamO6xnGwMYEIUPGdihSk3VO+3bwkLeN4ni1G/3t+r8onsoWWZV1F6OQ2LYhiavwhfznMSwBSJ0HXBA982rpGyLLS85jq6S2N09+Mrn416fo+tQcZmhrzITKAf0QfmomR6D3LOR/gDS31h1zOXFBqJMs6xtnBZbEGfio04ZkGTDQeMLkTod9IJh3yp+oABR8a5+KRQNqWqvAUahtFL6RLNgBGfrW1ks9jYb6t4GOwDo4nC4S2QmD8iqpJbw2BZc4F3zdZoYqgja/WJg9ZzReFDQ0IMsMbvXy8fKbO94hsS9FwfJf+GvEc2h5QJGkLy8jBEOfl6YC26/oZ80IW8tRnOnPL96Ff88lFeRel+zAVjYgZrB2TK4vzbOraxK96Cj7GwZj8Nhu+nsoLrjgs1JxrYh/vz3iK9Q7zFBc/3YcHyGsbbX/JFyUhCrMJRYzjZ55DpRcYPwtsMFRHSOtYusE8q/qZi/wepRiOkN/fyu4x/HjFo4HBqmQlTk5ekrGu3pETLbPUET7W6LGSpx8fUmu6YAxPpoz8DZoo9+/F47ZmZ5P4R1Ipcnn3cdMFMbGHCfpNVLPbJGCemae1g4obL0eZfakLEcfHlwHeIkzGHmaIdLL0hxPWY5+7MNimCeQ/W0bl7D8GNwHh1wazDfg8OZ+GqtEGC+I1dD/RuFGzfmmIglV2pw4EqbgCSNEPNRompeOokioLRK8QgqFEQaafaVvuZA5i5t2sAhE5esEw8zedu4NTiE3mZx412DQTxxXc9whYtFC4ddBmtKat/aeOh0P8Gnjqr4HCesCr3fZgo0kwo8VN3o0SNu5WelVq6HyF+UhHWeHoJ/OYWFu1yfRb7xc3dWjl9SWq4LTFmcaUwiv/A/0Hw6wv+FVSMMGp7dCstH/t25WZWWJ763+ntti/sxsmzkgVVHqT4QsYZewjPX5+0UP6T+KQdf6UHq38B7FSWaJxM3jtr8o0RTWFo5A0r5GGF3wBVA3InkNHNH+8pG9FjoyM6WOYaKnUFeJy5JFBC5r0KE1Gq+iOYXAbbCj7dw0Uu2EWeMqb9h0YDcXd1FejHgmuTbnwqTjiaQ3hyisowBNR7oZyPqPl71HOmIYxslI1oPIv2Flfx3d82VZgBdBRkNSg/YGmAobjika4i9VYKazCg0gFseHWQmWyzFDL9AN8jCewZCE9lu2LHnhBhgyuzbOsQwmS1xsvZp/+R88W9L+76JsOeYYiKtFzGWs1YJAbmmhfpQ0MFAKPA/qfSSkhMqvxx1TmCQycZbh0Yy7HPpb9ri5bIImVggT63HB0MwOmqoB4xSh0Bj4qswSM4/M9rWV0MJGs0jWIGj/sAmvhkK8cgr1jnyta95XsFmSAZOCFUHwhUR+nJCEeutDgCdC5Eu6v6bTYpjfosj2ANDHN3E3dFS4khwIOIMHxWLKF6d7ZUeOHC/qKSWXdAaSh73km7Pfc9Pvcn8qnnBmRrr3zGQgkd6rxZ8Cn3IW8hyssF4YXeWNog7v8vGcQtkOIe+R9TdegRoq1VdHqf81tnhcE9DZsAVhAqZCa7Oib2Ier+uFg03J1l9u3Xe4iepm02AuA8+XvXWo8cCka2ktCv/5y0818GzSoHXnC7p0/SouIKHqAMoxsJ2bn1wt3VSRLKUPgSXYHVuV5wvLNpp+D8QEkaQLVO0ViihYRI6rviERueg4yNtOtD1dSXIviMqVKEDbfnC5hJP3jHUS8uanafRxS2e68mFkxIfN/2g3vjkyoYLygfgPB2bBoalSAfHSl0ddm8X61YSnboyzKc/3vGpiEMH+wSA/bvEn9jcCLakU0kqlkR6dTAPAhzelQn48YA5OYZNIx//9SzQ3/8Fudksm4Kz9ucXCZ8ZbGh9nskNwxH9cOtNypP31/b2o4Y/Kdt8C33OgWnNxR1eQtv/fKQArnfxwSF2crJCPP7f/pqME/ySmRgq4FdaRBb8HlxQXvgmuOmNhzn//cY3ycr+MAjHW70grue4259HgFG/7Dv7n6Pmab7AcN+/z+iLQvHxCeyYvb1Ni6LuOC4ze5zuF71m7zy6/OxcaBzP6N/r7dYBJwiM68sGpiX+JqWKp6OiezTV5e+9HtlNom/p/+1vp4oa5jPr7L4gejRt/t4fE/oo5zHFOBCLTRsEzX5dwyJ/GaZNncgoB4vkMc3+Nrv7rk7GPLHH7bN5jEO7x18wUxpZhdb8DVdzO6WwVHDWg4W/Hfxfvi1aUUccxwePAj/Q+HmHog2+hkdkGVnEBwtcDbkXz4+bHqHC2XF8X+xuWgBm3056UZUfoyN1mdk5V8grym5e/lsFdk20J+ut5XcJbnnWpgFnHMFk/bdA5fitWZMnkSrrc2XfblvZKb8VoCbhziYWJvaL7kWceG5WROB5T50xFM/GoRu7kLT1hwNcGZGuQY0/n9x6oe/7qxg97qyX+KMf5HM7RwzwxULXNun/w8vsZnUMtDSJvD4iyfuAB9cOw/anWuRxpmxhDTnc2SQB3NLPILwRDnIpLhfUPMwOi6GU4FO+hOGwmxvzdmqIFTqVhagvIp3h786hSpW9IF4ThKXvwRHQ7nqujBGpanOOgcJ18erjwsMPUW8xB/50M3RJersNOIrrijZDnGynqmWfY5fNA6pk25wnaeu9mHP6lWwMSYOubS3gItjq8ANRpTurdzQ+AAiXf+CaJ+siGGpA2/SXb7+fAejq8PDLTvf7LLXUEX5bcufsc3XfnBswCD6gcFmD8BS2OLqgNbPpS/tJt3j93nh1zWvX1KxdDJYOIAleHdFiqMt6NumrCNJD+NeDUFNVqavtiv4p0GkPkMFrU3rOzmS8Wf29WNgj3BlikRbXg7KwnAo3mlWGavYkiC/b+Y9SLv4pTcRXY+xDknoMCtFycNTNW1tFb+yZA1aW3q3y5Ov9jcOQgrOUuemOSi8X8KJUus9lP1B4v3fM5GrikLwNKP+KvGQb9S8SoG11mr8IMz+Glq8LU3CYbD5zB4FIs+DxGhAWdrsBR1aRU1SUkBXX86uBJq7ojGQULmiaNgNz6UX9By+hSg6eMAdFqC5Wvf+87uY7hhzgY9ZMyslHEI9a24w9o/SjDzU6s+f5isq/TKj+pSPqVrbdqDFdwtR2cSYShXsEPGIswvq/l2knmDvRS6wQ4+qsBCxD07EXIBHwFrllqn6+bmODaGRDw6xIykL25PP/hGflCVMKxSVFdZ0VO8vtSm1KSgG2jQSgrVPqUDt8sDGEq2jwYU1FTYQ23LOwGi34mTMwK5FJjt70Zq7Szb+1UT11sA07H8mUkyVrkYfaEnDO8yIvRuQnK6JHAExmwDRktf5uKi3U5jGxPvccZgz24qTn9QyGzRT3ipxkJa9LihZ8wrID9mkfQqono/E5QajBOurEstdTD6aMoPpaHrLEKz/y8A15bBfz3XLYmb00S8qkx/3/XoM/f9/6sGIAmJqy38Tw6tn9j7uaCfMgnvorXnkTVVoSez/QJljmfj2NednHWRwEoeaf/5RFFpOAXj2J6vj8KVydTpzfQ//HncLcpzak/OOmUfWmI2/udgVS29zH7dzg1tJ3vfW8SEhBcRjCbSLoDmyHtvrAfAK95GDTwn0rVIe5cc9uE3k1jYjkxJsHTP/JjvgI0ucy6rL1vIW5o24j8y9Sf6Nt1S1A2/sjJ2ysoew3xFoOo45bbFCbicV6YXp6cDKm3HPpNhQogEsf0FR/l6rN6Lp0eZIdM1xm1k0/dOQmm1T4uXVOwaAQ8Fw/aMf7ZJ3WNceaGd/x0tA3rT9Nf5z6iCfGaNkwfrK0IMgGUL9PyXU/qgyIqEDb/W8LjJCm17+Zcro0T233AGh3UZFJPckdkH14xzFWgElm2TlZBClRTs49+8Oo+0gKLGGyEyBajcZwuowpECKBHiPEhF+SXNH5vORlUSdqJEUtx5FW639Bjb4NydvUR029kkduGL45FRDqE0R/fYu0VWaTIvwcnua4XJl1eehlGWeu62zVY/Z+tTccdKwdJ0tRRbxVThZNTqptzcDH8iIkNCkYHgZKrRZhLmP6rnj074BnPUWSPZHeh3IJjP1Fq3uuJn2KKne6BESkZ8iyBsjqzy+7ObAdH3FC1te3xEjDldNasn71P/anNXmTJwMV6igvXPHKXS+6ytW5L47rQ9JA+69p9uFHegUkV7LGl/Z3oJfvWpyN48y/LxLkFWS7yHbrDs380HQlMKuIb0zTcqPsvSeRlkvfJrtKmQaTS5V83vzcOoXxjJeTA4ynkn+bOx1ly+2llI1hWKxyAnrrG2Iu6udxVmbY6MgxnHCg4soWPv1oiN9nQWB6tYhFuakWhzNfel2DAtKPXBDN73mmoiqWJZBT1c+E9DXG/0+eoA9EKkhf5l4jwaH7NvgJ1Ax8dOuULIPLxjzghejqR2lUEM5CFv0g5E6b9WopOvNqC1uVp4chjlFwrnpP1eICikikQDXDyGKCSmP/iAh2zNHvNQXOgUydRQop2AoO/lJIrXROl0s/4MXMhHGtNkmK58o4k9+W8/ufzgU1XqSgQ574v+sdHWZqrBhTkCJ2nOSt1Yt/joAk37y/uo11UWSohjq3MQJecsijZW1wREvLZxrdKtpn6xI4Gu6WAcfjCNqr4Wc/UXJUIgdfrLk1Pcu4OUl3OIothtfz6Ri5AqcrMIqe+9gqyJAcYkJtiEQ71OUuDjGnxO9oEjvY6pIufna9u5c0meZQtKnovcgCJvEvuk5jQIjJd2IU3sRHQjZAnB752O0sSTTwrPzMWKH65Mmf0cB0fIYkG7v2RrxqACtAwvh/7zcjI1izGFtwAO9q4TdOITGLmULFmvmSqvxKDu1raqzsK/DLuzBVGFbKni4SL6WrTAuBRq5Ns6xWWNHEy0UvC83OaJ30vJpYYe9k3vQRhcOXM7Wz/YRtMa0YnB72cZ/6ZzOkFb/ee5WzgNIEmijxCMYD6Kq6ZtgsCnonnlp0A4NpmfSOpvBtGc2D12l/fY9B/vpEsb+g0QHLQqhjMiSOscmsdMya5D0VViFaxU2lRY42KmUQqokeIDRmBi85XW7Op27tyL2sOsZhctgfZzvO2vDDiwjlRH/kdnlS5CjLf2v55HWmYf0TkaQgnRfbYojeyALv46Gbxn6mZISI15WHWzgS3jT4drIvBDU/Ac0l+HVZ+UMlcRAA4SY89cGFbHWg4gOJwymjSNYgf32NYmuqtlf557cIQRw3fbwv82laJugwLCiM7GzDt5AvIsHbxQCmNdHWOna5cBjIJHqn+Rspo46k3G6Sd95UXbSp0Uq9B7MQFhSa5Zb0yXzZi4pmrVHYJXiBNLh3BwS+MnQmMdsfw26X9PIZtSeo35y65G6osJ2dkN3kPOQRJmX7rJjRK6a06ih5OaXAMFHFCMomJiAJ0yNhVV3h97avWgUPAvnNlfxBG6E+rLUxu/5Z323vIzubGbvDXpWzC8np3XBD5jeZnm+5Cy55vA9V/LZbWYYIzS/kT17r5+tBQZueuz+FAF9dogKpuKWN1EJj86aHuUpSbOsgGFKWAB4Zvf/OgUZM7xUL74SuHBawGiZEaF4xsellVkZ7bQbg8LqFZZOks0r3d0dAdGDpDe6RPPfonB2B4ChTeH6dRVgCjbXrzXbLwKN1zz4PxWrGGnDOjIa09z0kQM8ITn4NkFjbfLXq+kSNs2vOksM//VX65ud+a/OF2sjnBgoQiBnMITyEK0/ar7IySDLJVYCpsy+mzdh18jXNnj8KJamopMW42HgXVHxPHm6Lj+3bO2jT5138OnoMbAWwRu+NMwnnl/behAldDOwqj1n1RLp6HKiVQDGkbPups3S+JAWOGdf04bx8ES/v4RkVK4zX3ZLiaTt2jpBr1K0Sf7kLRCruFI4JVR1PtLdltPOBSdHyO8h35Hy9mbJH207XEVt+sy6n9krjTix2uadV8tDf0fxQNh9PScWrXPCY0y/a2oLcvCl1TblEM0vXdNBM69nf9eLAEMDVLFKB2qyvTEar9mKJM9f0MJ4Xz8+rJK7qD6ab9K38FwNNomng30AVsxB3emzN6MeSveSp0F0RIlIfZYWUpCtA4v3a6WBMbxHLNAWQXqsFuQM+816S6uSewMF4Al6/Nbhn0ffvzHnUni8w1Yft5gbAqz+YlO6C+tqBBCk0VfLGolVQMbgNsE3lYaMtrppyT3iuhNLq1yTYd9QLpPlPEDtemJYw6j4OnJKDqKDeABmc3CB61O870Yh8ezV/qsk2z8VR3CuXnwloRaQCvudM5+C2HjthQ9fiVymHXB/jnDLZYQBt5k6d1EKfa0wOvuuJXCqCKUpcLPXaGNS0zxyaeyXwhpYjXjby+L/YB2ptPOk1AFMZyRLlaQExzMQJk5DpE1m1tAnWwrtcWinAIKwRjausGZCDH+OTjGYguAIZlldfxVi3iyYDeAZaNwvket0bv8X+wAa+4FTOjqpUD367sfCLYMyW4h60ZZ6hyJu159fmtFfllgvikFniYAaO8ugn14SS6vjBBB+ThYP5rpuXWr0gCalMhXJ64KRrfHMHrKt+21R0yhB8cVDBHDEY9mtSjvAKFe0uPw//iXS9Bqxj/8S6XoFMK0Ey0TrpLgw15BRUCmBV7yZl8HfPVzJBOhGe6iAKRcbSiBSUpBTiWRfiAPgE1wR+WGrzCMxma9IGVDDgBXU7X+qiT1JbYRxTHoIPQMS9i4xCO4OkNCWQjMQ1XxPSonGChLRKwRbNlROVqrM+LJbpSe0E6gpWLeMAYBbZT/adYt3/h1SY6heCKcn8alseww80SnCba70LljrSOMUAAAAAAAAAAAAAAAAAAAAAAAAAAAAAAAAAAAAAAAAA==;" vertex="1" parent="1">
          <mxGeometry x="367" y="429" width="140.33" height="79" as="geometry" />
        </mxCell>
        <mxCell id="w5QW8rx5QOI1nEsf-yty-12" value="" style="rounded=0;whiteSpace=wrap;html=1;fillColor=none;strokeColor=#FFFFFF;strokeWidth=2;dashed=1;dashPattern=1 2;" vertex="1" parent="1">
          <mxGeometry x="372" y="292" width="365" height="194" as="geometry" />
        </mxCell>
        <mxCell id="FKEmvUv2pVxWzetjfZo7-1" value="" style="sketch=0;points=[[0,0,0],[0.25,0,0],[0.5,0,0],[0.75,0,0],[1,0,0],[0,1,0],[0.25,1,0],[0.5,1,0],[0.75,1,0],[1,1,0],[0,0.25,0],[0,0.5,0],[0,0.75,0],[1,0.25,0],[1,0.5,0],[1,0.75,0]];outlineConnect=0;fontColor=#232F3E;fillColor=#7AA116;strokeColor=#ffffff;dashed=0;verticalLabelPosition=bottom;verticalAlign=top;align=center;html=1;fontSize=12;fontStyle=0;aspect=fixed;shape=mxgraph.aws4.resourceIcon;resIcon=mxgraph.aws4.s3;" parent="1" vertex="1">
          <mxGeometry x="135" y="337.24" width="78" height="78" as="geometry" />
        </mxCell>
        <mxCell id="FKEmvUv2pVxWzetjfZo7-4" value="" style="shape=image;html=1;verticalAlign=top;verticalLabelPosition=bottom;labelBackgroundColor=#ffffff;imageAspect=0;aspect=fixed;image=https://cdn0.iconfinder.com/data/icons/long-shadow-web-icons/512/python-128.png" parent="1" vertex="1">
          <mxGeometry x="276" y="344.74" width="63" height="63" as="geometry" />
        </mxCell>
        <mxCell id="FKEmvUv2pVxWzetjfZo7-5" value="" style="image;sketch=0;aspect=fixed;html=1;points=[];align=center;fontSize=12;image=img/lib/mscae/Docker.svg;" parent="1" vertex="1">
          <mxGeometry x="531.8" y="564" width="74.39" height="61" as="geometry" />
        </mxCell>
        <mxCell id="FKEmvUv2pVxWzetjfZo7-7" value="" style="shape=image;verticalLabelPosition=bottom;labelBackgroundColor=default;verticalAlign=top;aspect=fixed;imageAspect=0;image=data:image/png,iVBORw0KGgoAAAANSUhEUgAAAwQAAAGUCAYAAACLAuWIAAAABmJLR0QA/wD/AP+gvaeTAAAACXBIWXMAAC4jAAAuIwF4pT92AAAAB3RJTUUH4QocCiUrCGs+cAAAIABJREFUeNrt3XeYJFW98PHvbF6WJboEG5QsOQsIomNAEbQEQQUtQZCLAbkYAAVFwQTI1cuLKCqoCC2IXgktiCBIoyIKokiOEkvyLhk2zvvHOe329vbErp5O38/z9DMzPV3V1edUVZ/fiSBJkiRJkiRJkiRJkiRJkiRJkiRJkiRJkiRJkiRJkiRJkiRJkiRJkiRJkiRJkiRJkiRJkiRJkiRJkiRJkiRJkiRJkiRJkiRJkiRJkiRJkiRJkiRJkiRJkiRJkiRJkiRJkiRJkiRJkiRJkiRJkiRJkiRJkiRJkiRJkiRJkiRJkiRJkiRJkiRJkiRJkiRJkiRJkiRJkiRJkiRJkiRJkiRJkiRJkiRJkiRJkiRJkiRJkiRJkiRJkiRJkiRJkiRJkiRJkiRJkiRJkiRJkiRJkiRJkiRJkiRJkiRJkiRJkiRJkiRJkiRJkiRJkiRJkiRJkiRJkiRJkiRJkiRJkiRJkiRJkiRJkiRJkiRJkiRJkiRJkiRJkiRJkiRJkiRJkiRJkiRJkiRJkiRJkiRJkiRJkiRJkiRJkiRJkiRJkiRJkiRJkiRJkiRJkiRJkiRJkiRJkiRJkiRJkiRJkiRJkiRJkiRJkiRJkiRJkiRJkiRJkiRJkiRJkiRJkiRJkiRJkiRJkiRJkiRJkiRJkiRJkiRJkiRJkiRJkiRJkiRJkiRJkiRJkiRJkiRJkiRJkiRJkiRJkiRJkiRJkiRJkiRJkiRJkiRJkiRJkiRJkiRJkiRJkiRJkiRJkiRJkiRJkiRJkiRJkiRJkiRJkiRJkiRJkiRJkiRJkiRJkiRJkiRJkiRJkiRJkiRJkiRJkiRJkiRJkiRJktSF+tr1wNIkm1IsFebF3ymWCuaWtKRXAJtW/T0fuGaI108FdgIWxb8nAdcCL7TwM2wDvBa4F7gReGIM+1gTWA8YiH8/Bdw8zDarAJsBC+N98AXgQeBRTytJktonINg2TbK/pkm2bppkfaaItJS9YiG48pgzzOsLNa8fADZv8Wc4tOZ4fjeGfRxes49L67ymD1gXKNVJg9rHw8ABnl6SpF4xoY2PbQGwHXAH8JM0yWbFQMFck4JKAbb6mhnLPlr9GarNH8M+FtX8vbDOa04D7gHeNYL9FYBNPL0kSQYE7WEhoVvD/sDjaZJ9qHLMBgaSRuhjwEdHuc31JpskqVdM6rDjPQs4Ok2yo4ulwgWOLZAE3A9czuKWghtq/n9MnW0eJXQfeib+PQBsAawDrA/8yWSVJBkQtK8NgfPTJCsDe6ZJ9nSxVHDgsdS7zo+PelYBXlnz3KXAbiabJEmdGxBU9ANPAmenSXaAQYGUiw0IMxdtSuhL/wrCgNzbCDMBXUqoXe+j/viDiYTBzpsCG7F4Bp+7gceAfxBmAJo7yPtXTyCwPvBmwixCmwI3AT8kDPqttk78f+V4HgOui7+vUec9jm4gfXYCXgdsCUwnDOT+J/DXqvesd6+aGX9/EbiaxeM9DozbV1o1dgGmEbpG3g7cFZ9/N2EA+NaEVo2/EcZFLPSUlST1ckBQKXx8GPhwmmR7AL8F5hoYSKPWFwvcmw7y/z2rfj+D0C+/tjCaABeN4L1eB/xlkP9NAPYDTiLU7ld7N6H7z24sOZPQXsA3q/6+HHh7/L1e0DKWqUW3Aa6qKtjXcwuwN3BnzfM/iIEWwOyYxlsCvwRmAJ+rCgh+DqwUf784bnsRS4/32h/4DvAmoOzpK0lqxIQu+iwXAtemSfZ2gwFp1AZiQDASBwHn1dw/thhhMMAQwQCEGvKf1gkGqn2PUDtfURuYzM85bT5BqJGfOczrKq0YW9Y8P6/q9+ViAf43MRiAMB1qvdfuBvx6mPv0lYT1JSRJGrNJXfZ5tgJ+mybZb4GDiqWCUxGpl0wkdJ8ZbN2OVYfZ/kZgH+A5Qjefyn76gBVrCp67AisQarwB3lmnUP4koYvMMvG56cCzwxzDSNYcWZXQFejucUjTacBXap5bCDxN6Pa0TEyHiinAFYSuVoPdczeoeW67QV5bHQi8FN9zWsyL6tf8bwxaJEkakwld+rl2BW5Lk+yHaZJNBKcpVU9YkdDP/55BHtcMs/0PCX3UtyCs/Lt+/LkBoTtQ9YrGM1iyf/6KNfs6t2r7yj42Z3FXnuE8CZwQX/8plmwF6BvHe9fuwMo1wcB/ARvHz7UpcFTNNisDO49w/1cw9CJoCwjdg7auSsvaGZDe76kvSTIgqG+5+MX9ZJpkexFqTw0MpME9Qxjg+gChRvoFQg3/c7Hg+kTN6zeu+r22r/7zVQHEi/HvhwgLDQ7lUeC9wKxY0L4c+DFLDyQeL/01f98O/AR4PKZRFgOX2TWv22GY/d5FGEuxC6FlZjB7EKZbviOm42zgCzWvmeypK0kyIBjaCsD/ATekSfbmymxEkkZlEUv2b688V1Hb/fCDwJl1CtTD+Xu8XmvvU30t+tzb1CnI13N5zd/rDLHP82Mw9ZcRBmm1png6SpLyNKmHPusWwJVpkp1BmKnkUcCpStVNXibUpg9WeJ5BmMFnKDOBV8XHOiyu+Z/Pkn3la11J6NpTsTyhq8v+8e9fEAYDX0eoWR9MX5ul6YQRHt/zNX8PDLHPxxn5dKF9ntaSJAOC/B0EvD9NstOKpcLnDAbURZ4HDhni/6sOExBUVuhdZQzvfQlQBNJB/v+++LiZMJZAkiS1iQk9+rlnAkemSTYnTbJdHHgsKwBYhjBOYNYY9z0AfIjQxeY3hK419WYU2gz4ZBem7YCnlyTJgKAzrUDo+3t9mmRr2VqgHrYSoWWg0kVlAaGLz0cIg/M/TFgBeDh/J8zMsyWhn/yBdV7zjhZ/1tGs7jtxhK9b1VNIkmRA0Nm2Au5Lk+ykNMmMCtSLliHMcV9xP/DfhDEJZxAWC3tmFPurzMDzE+DbNf8bz4W06hX+9xzF9n+pU4lQT+1aAs/ldPyL6jznrEKSJAOCJjqcsH7B8ZUn7EakHtU3SNAwmFWBtQb5X203pInj+Dnqrb58KnAiYaKBTaoeewJHAn+tClr+WLPtzoSpQqsdC6xW89yvczr+ei0PteseTPJ0lSQ1wi+SpS0HfD5NsgQ4rFgqXFEJDOxSpC72AqFWf3r8e13gYuB6QgvaO4fZfu9Y0IawZsBf4v1lFrBTzWuvGufPdjqh21PF5FjwP3KIbXaMx3k+YUXiqVX3zMsJazK8QFiEbGbNtk+x9OJhY/Wr+PO+GEitTJgtqtpPPX0lSY2whWBwGwOXpUn2zzTJ1nP9AnW5JwjdhKrtSpii950j2H6rqt/XiAHCHnWCAQi18+Pp84yuuxOElYEhjKU4vs7/ZxFaRGbW+d8eTfgMaxOmgp1R53+f8PSVJBkQNDd9NgfuTpPsOGLzvYGB2sREluzas8wwr+8b4h4wjzAA+MlBtr2XMB6gWnUL40zCOghDeYSwYNncqudq+8NPG+S4l6l5Td8Q+6gdozAbKBBaPJ4YYdq+uur344DDCCs4D+UWYB+Wbh2YXvN3XguLZcB7cIYjSVKD2nbRmzTJtgT+xvj2Nx7Oc8A3iqXCCZ46agNTCQuAVSwaokBfKfzPqipA9hG6tyyoes1ysZC5TXzdv4GfExbTejEGxZXtn6kq3E+NhfY147bbsHhAb1/cx80sPdh2OkvWss8Dnq5zn1qp6l4wEAv5C6sCoWWrXj+X+i0CffF1GxNmOlqppjB9E/DPGPy8zNILqE0n1NTvTei6U9nnbcClMeCZV+d9V6oJnl5i8EHHj7DkeIS94ntsGfOm8vkvjPfH570MJEkGBK1xI/C5YqlweTxWxxdIykNtQLAz+Y1HkCSpLrsMjc2WwG/SJPtzmmTTHF8gqUn6TAJJkgFB+5oIvA54KY4vWAEcXyBJkiQDgl70JeDRNMk+aNchSZIkGRD0pqlA0WSQlCO7DEmSms6FySSpfVQmUbgTKLP02hCSJOXOFoImqx5T4PiC8dffX5psKqiDvIbQKrAh8DHgQZNEkmRA0PmmpUn2+zTJVnM2onEJACo/J/T3l04B/p+pog4yxySQJBkQdKfXAo+kSfYDYBWwtaBZgUC5nNDfXzqA0OXiUOovFCVJkiQDgnFVWVH14BgYHFSZjcjAINdAYKP+/tKtwI+B9eJLHJQpSZI0BAcVtyYIOz1NssOArxVLhfNMkrEHAzEQWBs4FtjPVJEkSTIg6BSbAj9Pk+xo4E3A7MoYA9cyGD4IgP+0CnwS+I4pI0nD6iNUSk0ktFy/DdgImAUM1Hn9E8BthNmu7gcWVT0GTE7JgED52Rx4HPhemmRHF0uF5w0KBlcJBvr7SwcCR7G4a5Akqb6pwAeAXYANCBVSU8ewnznAA4TZr+4H/gBcDTxpEksGBGrcRMIA2EPTJHsPcBGhBkYs0TWoD1gJuArYzJSRpCEtC3wV+FRO+1sxPraMf/93/Hki8HmTW+pcDipuP+cD16VJ9q7KE70+8DgGA8sAPyLURBkMSNLQTgQezjEYGMpzJrfU2WwhaE/bAKU0yS4APlIsFeZUAoNe60rU31+aCuwNFD0tJGlYM4ErgO3G8T2dLk8yIFAT7Qm8LU2y04Bji6XCC90eFFQPGu7vL+0NfBHYwlOhrtWArejtqVUnADcAj3g6SKwM/B141Ti+50JcUVsyIFDTzQAOBz6ZJtmehJqfBd0aGMTuQasD/wfsaPYP6fXAL00GUuBnJoPEP4Hx/mJYaEAudT7HEHSOacClwDVpkr2um4KByuJi/f2lmf39pR8DdxsMjIhT/y0ukEi97uctCAYq96HZJr9kQKDxtR3w5zTJzk2TbNVuCASASf39pX2Bx4ADCK0ikqSRWZ/QxbRVAfljZoFkQKDW2Ae4M02ykypPdNJsRFVTib4b+BtwDjDdbJWkUTsFmNKi9/6XyS8ZEKi1lgcOT5NsfppkOxPWM2jrIKDKav39pfOBC3HQsCSN1drAri18/zvMAsmAQO1hEmHFyL+lSbYxtGdrQdXsQacC99C6Jm5J6hZfbPH7X20WSAYEai9bAremSfZNwmqStDo4qBowPLm/v/TO/v7SAuAQHCcgSY2awuJVg1vlz2aDZECg9nQE8K80yU4AKJYKLQsK4jiBrYHrgV/T5t2aJKmDLA+sk/M+7wPuBM4FrgLuBR4Y4vU3mg1S53Mdgu61AvC5NMn2Bj4MXAssHM/1C/r7S2sARwGfMDskKXcz4r2+UU8TBiafALw0xOsmAusBbwc2AnbAqY+lrmALQfdblzC+oJwm2QbNbC2oHjTc31/6LnCrwYAkNc1WOexjDrAB8OVhggEIU4zeGYOHj+f0/pIMCDRO+gir2t6ZJtmXgdUhv7EFNesJ7NLfX3ogBgLLmfSS1NYBwc7AEyalZECg3nIscHOaZIfn0XWoaj2BrYC/A5cBrzKZJanpZjW4/V2EMQKSDAja+tgcgNocKwMnpUl2V5pk2481EIgK/f2lb8ZgYDNCa4QkqfkaHT9wPzDPZJTUzgHBrcCpZlFTrQ/8KU2y69MkWxlG3o0otgp8PebTESZlS/QZgLX9fUxqps0a3H4OsMhklNS2swwVS4W5wKFpkp1FGMC0g9nVtHNgW+DJNMmOAE4Hnql9UaVrUPx9F+AM7BrUarcBX2liUDAX+CxVa1qMwSPxXGnm+Xuzp4J61ECLt5dkQNB8cYrM69Mke0MMCK7GGtFmOgn4appkBxdLhbOr/xFbBF4BXEGolbJWtvVuJ8wM0kwHNBgQ/Bv4klklte09RJLau1BXGfRaLBXmF0uFPxZLhQnA/wDPm3VNMxU4K02y/jr/ewLYwmBAo2QQL7WnBSaBpLYPCKpV+rYXS4UjgDWBX5p9TSu8LQDmmxSSJEkGBG2jeorMYqnwdLFUeB/wZuA6s1GSJEnq8oCgVhxfcBVhbMHbGX6FRUmSJEndEhBUtRgMFEuFywlz658KvGi2SpIkSV0eEFQHBrG14CXgUMJUmJeatZIkSdLwJnXDh6gZX/AUsFuaZLsCXyXMsS+pN6xMmAlrY+DVwNbAcoSJCAaA1Wpev4gwe1YfcC9wD/AgcAtwB3BjF6bRNGB3YDfgQGBV4PE2Or6dgb2B9wFHAWeOcT99wFoxz9eOn/OV8XzYOJ4PG8VzYBKwUp19zCFMsDARuAl4AXggniO3AQ/H51u1uNfCBref24bn58SYP5vH63YjQkXfajGPJgCvGOI6vht4ljClauVavgV4rAuv5eWBXeP1/Drg9W34OZeJ9+Q1gfWAAmHq8nVjXq9a8/rHgfvidXVFfMxuwnGtEI9nA+A18R6xZnwsC8xiyUrzfwP/Av4B/AG4DHjOgKAzAoPfpkn2O2AfoGg5SepaE+J1/vV4M+9j5K2fE6q+kFaJX6rEwuJALHBdChweCxrN8MtYAB7NzF6TGf10rpOBLxDWrhio2n7ZIQKCTwLfGcOxfRz4/iiPLwV+GAOWyrFtOcp97BkLSP3AOixezXusq3pXr8Hxppr/VZ8jvwa+FgsLjZoVC3UjmRK00e/wbwLHNxBwXQW8Lafr4M3AMTHvFo0yz2qvY4B3VAULA7FAdybwDeDlJl3L3yb0VBjNgm/zgdfGAHM097zjgcOAKTGdXhjmvvdhwsKjA028x1SsBhwE7B8L2qO5BleJj+3jPhYBxxEqeBtVAD4dKxsKVefxSI7rlfHx+nhfXBi/c47tpi/SrlUsFRYWS4WfxRqhk3GJdqmb7AKcHW/MPyPUBk/M6b5WCSomAwlwF/B3wkJteZtY9QU80kelADUSWwI/ItSyfbnq81VsP4LviNEe21YjPLZlgCMJNe1nA9Nrjm3lIbZdB/hYzPubY0HnfOBgQq3fpKrzoRlrYVSfI++J58eDsfCyRoP77RthWjf6uSaMMm+rH5NiYbQR28WA8zngyhgMkHOeTYjnwZox4Hgpvtf+TbqWJ40yHaeO4nzZmrDy+9x43UytSqcZMZgeKh0mjfI63m+Ex7VuDOjPjMHsI7EAv16D12Bf3P4r8fraeJTbrxkrJ86JlR4PA5+Nz09o8LgmxfvpTcD6BgQdII4veC5GhSsDt1qOkjracrEAeHn8EhovWwE/JkxcsFUbpMN2w/x/OvA7Qq31gYSWgHpe06S0Gu675zOEWs0TWVxbV6+gMZjjgdOADwCbtsm5uSZhZe6HgBPo/kX5bhnjdivEQvlfCbWty47zcb85Fl6fH0Vg3SwTRxAQLEdoqbwB+AiDtwy9Oudj+9gw/38joZvlPTGg35/FLTTNuKfcNMJzZbdYifMg8D1gX0LLWzNsFt+r44OCrg8IqlY7rqxfsGmszbnDcpXUMSoFqyMJNT2tLABOJ9RWndriNNlikOdXJqzo/hzw1hHsp9CEY9t6iP8dGr+ovzWC/cxkcW1lXoXR8fI54HpCLWm3X5ejcQTwaBsUxCHUql8J/JbQ4tQqaw1RwD8ZeJrQFW44eZ9r27J0K10/i1scy8ME7c0InjLCmJJ6wcn34/fDJS0ooF8d71cGBB0WJFxQLBU2IrQauCKv1P4G4hf3iYRm8nZwCGFcwbQWvf8ede7nnwCeJDSLTxzhfjZswrEtYslBun2EftLzgVNGEYRMHOJzXNQB5+02hFbptbv0uhzNANZlYyD9zTa6hiveTphU4B0tev/N6jz3UcIg1sNGEXi9tgllxC3jz50JA7evIrQ4rtiitFqO0PpWsSOhRa4c02xWi45rdeCPBgQdKHYlOjl+GZ5seUtqWzOBf9IeNYq11iN0y5nYgvfuY3Ef7ncQaqO/O4b9TG/Cd8EEFtccbkgYdHsdox8EuwKDdxG4qUPO3ykxcNyoC6/Nkc5OtRJwLe3R1W4ovyFMIDDeqlsn3hGDyO+P4bpcK+fjmggcHe+/f2Dp2Z1aZV9CC9zNwDU0NmYnT1sA7zUg6DBVMxL9q1gqfJowetzxBVL7+T1hCsJ29XpaUzM0IRYAfhoLMluPcT/TGLxbTiPHthrwKcL0j7uPcT/LxoBlMA91yDk8ETiPxgfhtpuR1FwvF4PVTTvkM51EGBg+nippc0G8ljce436aUTB+c5vm3Qltelz7derF3LMBQXVgEFsLHonjC/YhDBCR1PrCxll0xloiryN01xlPkwi15I1+AS1PmO2nGXn3vw3uZ9owheiHOuh83owumqKQ0C3swRG87ipa2z9/LL4YA/3xLIs9xtLdAEdrY9Rq7yS0bBoQdGpQAP/pRnResVR4DWGaK0mtsxXwoQ463u8y9DSZzQiY8uiLPYPm9OnO40txMkO3EFzXYef0UdQfENnJQftQfsTYW65aXTb6I+PbFXAV1C2Oo0NPetUEBvH3LxNqNb5vykjjbgqhq1Cn+XkHHvNU8u8ylKehZjHpxG6eR3bJNbqIMN/8YDamOet2jKdL6bypY9f066Pl9jUg6D73FUuFjxPm6X6E0a0+KGnsjiN0Zek0ryMsitVJlmH854EfjdWHukcTFqbrJLu1eQA2GkPN0lei89dh2IXOGftQsR1qtRVpn4HOBgR5qBpfcFexVHgl8EHCokSSmmc6HVrDQuh+8+EOPO5CGx/bUDPTPE7nTR29Nt1RizsAPDXI/z7A+M5P30xnddjxzkTtULbuuPVHJplvwwcFVb+fC5ybJtlphL7NM0whKXevJd8VN18gtPBdAtxIWO1zIqFmeUtgE8JgvjVyuqY/T5iqr5O086DPoVpcMmAe9deCWBCDhcrPuYTF2m4k1NBfyeCVYq+KBffNCPOaTyff9SYOi4/BCtoD8bhH8h3eSC38IsbewjIvXlv1CkP/1YTzYBHwUnzfBVXpU5l+d2LMp7xnctqS0EpwS4dcyx2/Ym4X6GPJdVgMCLpRbDH4eJpk3yYMPN7HVJFy9bWc9jM/Fs5/BTwwyGturirErxmv52/m8GWwC2F9gk7RzrVZQw3Unl1VAPw3Yb7/PxBmivsX8CzwDGGl1+fG+P4rEKalfjfwjZw+00FDBARPE2a4Ga6L6guEaSobCeZOB84cY1AxADxf5/llyXeGngWE2Zn+FAPAJ2JeLqp5zxnxGt4AOJiwcm1evkznzC//atQOAUGh0w7agGCUqloM7i6WCvumSXYKcK4XoZSLGYQVMRuVAW+KBcSReogwB/nfgctobIaRj3VAQLAofuaPAb9tw+ObHQuC34lfsIMVkPcgzAjTrO6cT8fHbcC347nV6GxSyxD6Gc8ZJJD98wj30+hnfhD4S87ptVdOZYtFhEk9DhnBa5+Pj8eAvwHnxPvIBeQz89fWhK44z7XptTyfMJ7mo4QVe9vFizFwnRsD9tuBHQhrU6xCaxZ0rBxX5fE0odVw+xj8r5zT+dtpU+06hqCRwCC2FlxLWInz3aaK1LA9ctjHo4R+53ePcfsrgfc1eAwbt/DLbiQuiF/M67RRMFAp8N8Xz4NCDAZg6Nryyxi/sV1zCauRPpXDvtbr0mv4kznt560jDAYG80fCOIbrcziWtWjfSQ5+SWiR2aRNgoF5hOlmdyd0/1yf0HKzPWF81YaE7njbxSBhvMwBvgf0A9sQWpJeHa/n/eNxrQskLO6214hpnXbhGhA0GBRELxdLhRKOKZAatWMO+ziK0K2gEecz8lrael5B6HveTgYI3WheD7wnFpQWtdHxPQF8PAYpFwEvt+k5mgGn5bCfdbr0Gs5j3YH3EBY0a9QzsSDa6Lk0AXhDG6XxQsKYhg1i5cV1jGzMSTML22VCV8mphC5xvyG0qj0zSGD9D+AdNHdSgEfjvXxTQp/+Q4CrgTuo3zr3AmGq2bfS+AxZHTcrpQFBjoFBsVR4MU0yE0Qa+/2o0VrTxwl9ovNwXgPbTif/1X8bcTuwUyxAXNNm+f4ccCChtq5T1n05IYd9LNeF13AeheargQtzDoT7c9jPW9okjW8ljI9opBU0LzcTatQ3JXTRvGKU+XJTvGfn7VcsbgXYi9GvV/J74J+9+AWsJgQHprPnuEZtMmHwZiPyXGG83MC2M2iP5eufIiyEtTFwLe01Z//zwM8IXTF+Qvu2CNTzAmHAciPW7cJreMMc9vE98q9dvYEwNqiTA4KHCbM3bRqD+gUtPPf/QZiBa3Pg1zTW9ecPOR3X00CR0BKwd8zvRsZ8XGZhSXmbB5xtMrTEHcAPTIaOCghWb3AfeQ7kvanB7Vu9oNHnCS0uJ7VhXl8Y0yelcxd8vK7B7ad04TW8WQ77+EUTjmsBjQ+ebuXEIUfEtD2jxfn7A0Kf+63JbxrWGxvcfhHw1Xg/+RD1uwKNxVwDAuWqWCosKpYKh8SL6AZTZFzMBo4ul5ONyuXklv7+kinSGfpobAXX52m81jZPrRpTdD1hEN+JhFqzdnIfsGd8PNDh5+ujDW4/0IXXcKPjZprZnS2Pmujx7uZ1HbAq8D9tcC1fTJiR7N6c9zuvwe1fAL5EGNsjA4L2Fmcjuokwq8cu1J+7Wfk4EdioXE6OrzxRLiemSmeY1OAX7jPkX6vTSCvBFuOcfgsIg/R2IHQvaDefICzydGGXnK99XrJLmEgYTN+IO5ocKDdq5XFKyxcIY352oDl97Mdisqd4938Bq8mqxhUsKJYKVwAz0yT7IbAvYUEVNe5aYP9yObnbpOjZAtZC8p8156UGth2vQcULCDNpvL8N83SAMC/8HozvFINqjUYrGa9s4rHlUVnQ7KkkXyKsqP5eTyV12sWrUQYGlVmIiqXCwYQ+iWeZMg15njCN4hvK5eRuuwepB13dpsFApYAz3vONq3O1eyXlRk3e/xkGA/Li61JpkvUBM4ulwrOVoKDKnGKpsH+aZOcA3yIsLKKReRr4brmcfLH6SbsH9bx5Oe+vE/p5v2y2S+Oi2d3EXjSJZUDQvaYAN6RJ9tViqXBWHE9ADA4G4s/L0iT7PfB2oIR9U4fzHeDL5XIyB6C/v2QgIAj9l39KfgvdzCessilJkgGBGq5RmAX8NE2yg4DDCHP4Uh0cAPOLpcLFwIQ0yX5AGF8w0+RbwrXAMeVycmW9ZUNgAAAPC0lEQVR11yCDAUXLYHO7JEmj5hiC8bUz8Nc0yS6BJbsP1fz+UUJfxUtNMiBMJflGYOdKMGAQIEmSlA9bCMbfZGC3NMkWEVoLziyWCs/VtBZQLBWy+Lp3A8cSpuvrNc8QuoB8qlxOBiqtAgYDkkZhZcK6DMsTupXlMX3iPFq7UJUkGRB0iT7gFOBLaZLtXSwVrq59QQwSLootCu8Bzuuh9PkFcEi5nDxZecJAQNIIrQR8AdgbWJEwlmui33mSVJ9dhlrvFUA5TbJfp0m2bfU/atYv+AWhhuv0Lk+Pa4G3l8vJ+6uDAUkagT0Jq7s+BXwGeBVhLNZUgwFJMiDoBO8ErkuT7Lw0ySYC1WsWVFoLngUOJjSBX9uFaZAQ1hO43PUEJI3CLOBu4FfAa00OSTIg6GR9wPuAJ9Mk+zihiZs64wtmF0uFHYH9gZu64HN/G5hcLie/Jqy6avcgSSO1FXAvsB5O2SxJBgRdZAXge8BzaZLtWLPCcXVgcFaxVNgCOKpDP+efCFNFfrZcThY4e5CkUdo83kecolmSDAi61nTgmjTJfgVsWnmyEhxUfi+WCicAqwI/pjNWVr0ReFe5nOxcLicvVYIAgwFJo/SzWKkgSTIg6HrvAf6ZJtmpaZL11a5fEIOCx4GPEAbR3dumn2MhsF+5nGxVLicXQ1hlWJLG4DSqKkokSQYEvZJXhwD/TpPso5Unq8cXFEsFiqXCw8VSYT1gP+DONjr+bwFrlMvJ2a4yLKlBq8V7nCTJgKBnvwi/nybZo2mSvboSDFR3I4rBwdnFUmFD4Gu0thvRDcCscjk5HHjUIEBSDt6CXYUkKTfOy9y5VgXuj+MLPlMsFR6sfUFsPTgmTbIzgWMIsxKNl5uAr5XLyS8hdA0yEFCTPUNY7O/lNjiWPrpjBrB2ZeuAJBkQqMpewF5pkh0PfKlYKiyo/KNqrMG9xVLhw2mSHQNcDazd5GP6dLmcnFwdCBgMaJwCgm/Fn+pub8txX2NtQXWKU0kGBGo7RwHvS5PshGKpcAYsHl9QNfD4IWCdNMkOAr5K6H6Up+8A3yyXk4crTxgISMrZDjnt5ybgAuAOYO4ot50HHAm8weyQZECgdrMucHqaZEcRatD+Raz9qpmZ6AzgjDTJ/hf4VIPvORDfZ+dyOXnEWYMkNdk2OdyzPgOc3OB+9jUres4ik0DdykHF3Wkd4B7gvDTJCrD02gUxMPg0sCFhLu+xeBRIy+VkvUowYIuAWmjAJOgJ2za4/e9yCAa0tD4a70a1QpsX5v9mNsuAQJ3ovcDDaZIdVn2jrm4tAO4slgopsDPw+Aj3+zJwfLmcrF4uJ+dUnjQYUIsL9CsC00zGrveaBrc/1CRsWoG70QH9WzTx+F6Zwz4mms0yIFAnOxm4K02yD8GSrQVV4wv+VCwVVgUOBGYDkwfZ14+Bjcvl5Gi7BylnC2hsQPAUv7B7QqGBbecCd5mETQsI5jS4j12aeHyb57CP+81mGRCo060HnJUm2fXACmmS9VWCg+q1DIqlwk9iYHBLnX3sVC4nHwHuA1sE1BSNtBJMA2aahJ4jQ3jW5Guquxvc/lXAsk06tt3NHsmAQIttCzwFnJkm2cxKCwEsNfD4yeqN4viAPztOQE00n5F3WxvMB0xGqWXuzGEfn27CcU0Ctm9wH38we2VAoG7M9/2AZ9Mk2weYDkuvdlytEgQYDKjJAcFDDe7j8yaj1DI357CP/YEZOR/Xh4A1GtyHCw3KgEBd7Vzg+jTJkprBxtJ4W0iYuaoRU4DPmZRdrZGZbGbleBzOatWcgGBd4Ec5HtNOhLFvjTrL7JUBgbrdJsBFaZJdmybZK00OtVA5h30cDWwwjse8DKH28UAar4XU8BrtVrZjDscwjXxmrelG5+Swj/fH/TQ6a9iWwEU5HM+zwMNmrQwI1Ct2AO5Ik+ycNMlmmBxqgcty2MdyhPnCD2nicW5ImL7ykvhe9xJqNd9iFjbdvQ1u/8MGtp0J/IAwscKbzYq6vpvTfvYF/g4cMIZtVwWKwPXAyjkcy/3Ak2atDAjUS2YC76Px1UClsXgIeDCn8/jU+EW+B2H2kuWAqSPYdkp83UqEKS7XJdQqHwNcRegqcjtwCrAbsFHcBmBXs7Dtg8ZNgOMYWT/1KbFw+VrgAkJN8cHAambDoG4CHslpXxsRuvu8HK+3XeP1uGadx+bAQcCthK6HHyQMJs7DpYQxTlLXmmQSqI4BQn9uqRW+AJyd075eHQtyL8dCwouEWbb6CHOm3xMLHdVTHa4Q/79iDCxGM5XptoSKlkVmY9PcnsM+vkSogb4EuBa4Md7zpgBbAWsTKkXWB1Ynn1rmXvE8YUae9+e4z6mEFrnKonIv1XnN9CZ+puPMVhkQSNL4ujAW2vMshE0D1hqHY59JaFmwe0Hz/CWn/awPfCo+lK+jcg4IxrPwX+sbgwQgUlexy5CkdvM8cEWHHnslIFBzXWIStLX7gNO64HM8Q35jIiQDAkkapUM79LiXIXRTUnOdaxK0tT7gcDq/pex04N9mpwwIJKk1niAMbu9Eu5l9TXcNYTyI2tNAzJ/DO/gz/B44wqyUAYEktdb5hNk9Os0bzLqmux+42GRoez8FTu7A434UeC+NLYInGRBIUg4WArsDN3TYcW9t1o2L95sEHeEIoNRBx/syYUGz2bgatQwIJKltbEdYYKiTbGu2jYuDTYK2twB4N6HFr909Qljl/DGzTQYEktQ+Bghz+u8I/KyDjnt3s25cnA5c3cL3/yJwi9kwInsDH2nj4/s9YdGzh8wqGRBIUntaCKSEQYrtXnv3HE49Op76WxAU/A7YHvg6cI5ZMOLg/seEhQCvbaPjegr4CvAWQnchyYBAktq4MAHwrVigOKUNj/E2Qg3oWsBnzbJx9bZxKphfDKwB7ApcF5+7yuQflTuANwKvp/XTkh5LaBX4cs19RjIgkKQqU1u8fT1zgMMIKxmfBNzYgnSZA/yDMB/+fwFrApsQakBnE/pNj9SUBo9lShM/Z6Or2U8bp/yYB3wQ2DcGZnm6mbA41frAu4CM0I2t4n7CYnqjNbkNrs/JLbqvzCdMHTsLeCdh0PHj4/C+C2Mg9w3CIoLHERYfy8vkNs6PiW16n2nXe8zkNk2vtr3ZS+puBwIzGtj+aZpX6zYbODLeeCcD+wD70ZxpP+cSpkC9HvglYfDhvPho1FeAH40xnfrisTTLhcADsSA1FgvG+Xz9OXBBPAdOJQwQHYvbYnB3diwwzh3itU8Q+sdPH+V73JPD5/0YsNwYt+0Dbm2De8wlwG9i+m0KfAg4oMH7Tq3fEqZAvTjm5fwmfZbTgMsb2P6uJqbz5cCeDWzfrK6aFxBWtm63e8xZwF8b2P6+Tvuyd47dJkuTbBphTuPlO+iwFwD9xVLhGnNQHWptYCtCzf1GhNqxVzJ0LdnjsYD/cAxk7oq/397EAoSaa1VC3/Bt4rmwfE3gtYiwEu1ThJr/PxJaftR6MwgzjK0br+fVgGWBFQYJnit5+SLwL0LLzU3xd0nDsIVAUje6j6VraIbrIrnIZOs6jxHGFpxDqACbUKcwab63pxcI4zOqx2gMlofmpWRAIEkjYmGhtw0w9m4JMg+lruagYkmSJMmAQJIkSZIBgSRJkiQDAkmSJEkGBJIkSZIMCCRJkiQZEEiSJEkyIJAkSZJkQKDRGTAJJEmSZEDQm+YBRwIvmxSSJEkyIOg9i4qlwunFUmE6cFEMECRJkiQDgl5QLBWqf98D2B641JSRJEmSAUFvBgg3FkuF3YC3Ak+ZIpIkSTIg6DFpklEsFa4E1gE+ASw0VSRJkmRA0COquhE9WywVTgOWA34HLDB1JEmSZEDQQ4FBbC14sVgqvA3YGvizKSNJkiQDgh4KCqrcUiwVdgIOAJ4xdSRJkmRA0FvBwUD8eSawNvB5U0WSJEkGBL1pTrFUOBF4BY4vkCRJkgFBb6kaX/BUHF/weuAOU0aSJEl56jMJOkuaZIcAxwCrNvFtFgD9xVLhGlNckiSpu9lC0FnBAMVS4bvAJsAXTRFJkiQZEPSQqhmJniqWCl8HVgeuNWUkSZJkQNBjgUFsLXgU2AnYHHjYlJEkSZIBQQ8FBdFAsVS4uVgqrAkcBzxh6kiSJMmAoPcCA4qlwrHAOsAppowkSZIMCHrT88VS4TBgCxxfIEmSJAOC3lI1vuAm4I3AzsAcU0aSJEn1uA5Bj0iT7KvAJ4CVRvBy1yGQJEnqEbYQdH8gAECxVDiGML7gJ6aKJEmSKmwh6M0goR/4GmHK0npsIZAkSeoRthD0XjBAsVQoA28AtgNeNlUkSZIMCNQjqqYpXVQsFa4HlgG+Bbxo6kiSJBkQqIcCg9haMFAsFQ4HVgZ+Y8pIkiQZEKiHggL4z8Djl4ulwu7ALsAfPDckSZKkHpUm2YQ0yRxwLkmSJEmSJEmSJEmSJEmSJEmSJEmSJEmSJEmSJEmSJEmSJEmSJEmSJEmSJEmSJEmSJEmSJEmSJEmSJEmSJEmSJEmSJEmSJEmSJEmSJEmSJEmSJEmSJEmSJEmSJEmSJEmSJEmSJEmSJEmSJEmSJEmSJEmSJEmSJEmSJEmSJEmSJEmSJEmSJEmSJEmSJEmSJEmSJEmSJEmSJEmSJEmSJEmSJEmSJEmSJEmSJEmSJEmSJEmSJEmSJEmSJEmSJEmSJEmSJEmSJEmSJEmSJEmSJEmSJEmSJEmSJEmSJEmSJEmSJEmSJEmSJEmSJEmSJEmSJEmSJEmSJEmSJEmSJEmSJEmSJEmSJEmSJEmSJEmSJEmSJEmSJEmSJEmSJEmSJEmSJEmSJEmSJEmSJEmSJEmSJEmSJEmSJEmSJEmSJEmSJEmSJEmSJEmSJEmSJEmSJEmSJEmSJEmSJEmSJEmSJEmSJEmSJEmSJEmSJEmSJEmSJEmSJEmSJEmSJEmSJEmSJEmSJEmSJEmSJEmSJEmSJEmSJEmSJEmSJEmSJEmSJEmSJEmSJEmSJEmSJEmSJEmSJEmSJEmSJEmSJEmSJEmSJEmSJEmSJEmSJEmSJEmSJEmSJEmSJEmSJEmSJEmSJEmSJEmSJEmSJEmSJEmSJEmSJEmSJEmSJEmSJEmSJEmSJEmSJEmSJEmSJEmSJEmSJEmSJEmSJEmSJEmSJEmSJEmSJEmSJElqe/8f+6Y56bFIFhwAAAAASUVORK5CYII=;" parent="1" vertex="1">
          <mxGeometry x="365" y="183.61" width="202.56" height="106" as="geometry" />
        </mxCell>
        <mxCell id="FKEmvUv2pVxWzetjfZo7-8" value="" style="shape=image;verticalLabelPosition=bottom;labelBackgroundColor=default;verticalAlign=top;aspect=fixed;imageAspect=0;image=data:image/png,iVBORw0KGgoAAAANSUhEUgAAAOEAAADhCAMAAAAJbSJIAAABcVBMVEUZGh2ee/8AAAClgP8pIDYSExUWFxkoW3U/v/gMDA1Kt/mifv85xPiZff8vy/cxyfdDvPg7wvguV3VOtPlGuvkrWXUyzfEuzfU1xvcxVXUlXXVmT5uSgv4wzfNRsvkjX3QjYnE4zeqWf/2AzZ6Mh/5fzcEpYmpVr/pSzc9BzeFuzbFqzbVzzaxMzdU2zexbzcV6zaSMzZFQPnVFzd2GzZeTzYqezH5lzbuKzZOazIJBfaCJif0tX1+kzHiszG9ar/+yzGk3uc+/zFsXZXGGkf/CzFhhqv8UMDlETHpIRHUUDxofSEdZ2tuJlv9NtrUfOEwxamU+fnQiSV8MGiFLkYETIx5XoIsjPTMSNkFkr5IxU0NxvZgaRE1Ca1NSf18MGBNikGhxoXAhLh8tPimAsHVAVDZTakFnf0pJr64ZPT0cN0kTLCx5kFCKoFQ3PR+dr1dOVShlazB7fzWSkjgjIgzY2FN5gz9jg1YieIUof5k4c5omh2S1AAAHwklEQVR4nO3c+VfUZhQGYLhtAnEDB4atOsxYHRBBsKIUBAq0FlupKIhbUVq7aGsXa7XbX99vS/JtGeT0HOZLz/v+PMfD45vJvZOZpKMDQRAEQRAEQRAEQRAEQRAEQRAEQRAEQRAEQRAEQRAEQRAEQRAEQRAEQRAEQRA9cXH+44sDSUTFcf7qVi9uxx//VklocbHZbH6cpV6vj/KMrLtCohs3bnzG84GVz4MVRnRzY3zq8uXz5xuNgdODJ070DB072d3d29vfP+IIE1r/4pNr186ePXXqzJmjet55N1gh0a3x8SlObDQuDgye6Ok5JoT9/Ue6HCFRhQGvMeCpM8c79YQrFBWmHQrhUCZ0Okxos6IqLI9QVTjFhRcN4RGnw5houJIdpCURRrQ4nQkbA/lR2u8R8gpLJySanlZvw1QoOuz1dBhTUsk7PF4OYUS3NeFFfi5VQk+HCW2VT0h07q2FrMJq6YQR3bGEYhwe6/a9D3mFpROyCnNhQwh75MB3hTFtV5lwuFTChFVYIHSPUlZh+YREcww4XbTS9OnCiLa7lPCsFHaGL2QVzokKx9U4NIRHTCGrsMvsMHwh21Dm5owTTQuhqDDr0B34QQoTupsJ5dJmrTS6kHiFJRPGtHfBFDa0cWh1GNH6SOmErMILc+cKBr7dIdFIFxcODw/7T6UBCmPamSgW9ppCUWHZhAndu+AIBwe1laYvFxKNcmGlTEJRoduhHPiyw1zIKhwtXYcJPbSEzkqTC3mFjrAzbGFE9ycn5KnUWmmGhrJxmAojejCqHaXelSY4IaswFY77r9IwYU0JWYW8w2om9AyL0IQRPZrMhVO6UFtpalUhTOhBXQqr5RESfTk5MeEMfPMahhKy5Y5fINaP0vCFrMIZQ2hfpZEDXwoT2q2X7ijlFU76hoWnQ15hfVQNi1xoD4uwhBE9ntlHmHfIK/R0GLaQVVgglF9anFQrDRfGlNRL1yGvsEhoDHwuFBWWTUj0vkfoWWmYMKKk6Rd2hitkFSqhd6XJr9LUmJBoVxcOl0LIKtSFBVdpUmHUdIXuF09BCRN6YgmnCq5DCeFu+YREs36hdpWmNxNuN71Cd+CHI2QVSmHB0qZdh+LCRV1YKYOQbSizsww4I06lc61Xmlp1rymEo06HzrAIRpjQV0LYeqVRA79WuZkKR6wOgxXGtPdh9jbcVzg2sthUR2n+4SlwYUJfFwgbubA7Ey7owrRD/zgMRBjTzqVWQmulyYT6x8Nh/9IWiJBVaAqtlWawUJh/tAi6w5ieXtGE2krj+2qtjEJe4aVZV6iu0py2B74U1q1zqX8cBiGM6BteYdFK4y5tHxnCavjChL7Nha2uQ/mEXSUQ8gql0FlpVq2v1uTSNuYVbvlPpSEIiVWYCs1h0Vz1XqXxC5NghRF9N18gpAMItyhYoajwim/gN1OhdR3KFbIKt4MVRvT9fIGQmNC70niEm0T+cdh+IdG8X7jRTIVspRnaTxgFK2QVXuVvQ3ulmR6/RZnQ+GqtlgvztZRVGKqQ6KoU2gN/Y1EXGgNf61CtNBUSQt84bLcwomdX59NTqSG8RUnChc5KYx+l/FS6SUmoQqIlU5iuNBs3KRLChnsdyn4f8go7AhUm9EwT6ivNc/ZHyw7t39LUxpz3IatQCj3Dor3CmFVoCLNT6cYPFDnCXlcoL2Lw+37CFPIK/cLnrBVvh32OsKv6I39xkEJW4fKSOJU64/CF/JJ31Vhpeg1h/uFJ3LoVpDChn/xCWSEXyutQ1kpjCrtEhVzoPdG0UxjT3vKSK+Qnmh31W4tV79JmdSjvvpPCsDpM6OdUaK00d0UrqdAZh6ZwnZ2TOoLsMKbXK8vpicZcafbkD4K8wpotVDdQBijkFS4vLXlWGlWhEGr3dPV6O1QVMqF/4LdPGNPTFVfIV5pz6T2wQuh88TRmCtN7YMMTJvSrJZxRwjuqQnmUOr+HMoVphULoO9G0TRjRLwy47Bv42W3MskPPSqMJs9uYgxPKCn3CrEJDaAx8JWRr6XZaYXDCiF6uyIPUGYf5zeVKmN7T5elwK39xaEJiFabCeUOYV5gJtXu6+kxhXmFoQlbhWkGH2vMBLGF+lH6qjtKt/H9DCj3ANgmJVlY0obbS3M5bUULz10KGcFu7/SksYUS/raVCa6XRH/HgCNOVRgl3tQoDExKtmcJs4D/SKsyF9tKmhJF+F2JQQl6hX/jQeErHPkKjQi70nmjaIuQVukK+0hgVCqGz0qTCet18wElIHSb06vqaOJXaA9+skAv9K40QmhUG1SHRddGhI5y5b1S4j9B6Rk1AQlmhEhoD36pQF5oDnwutCpnQP/APXxizCsVB6q40VoVKmN7TZQrr9pODwhHyCg1httI8tFqRQue3NELYfGC/mAt9wEMXsgrf2EK10uy4D51ZlcPCI3Qe/hSMMKHfDWG+0tyzW8mE9krDhC+cF4cijOn1m4IOnQq5cOD0oPUTbwZkny3c53fxeXjUl0MWJvTyFcsfPM94/uR5wvLYaYW9+C+Wv7MsLCz8I7NpnZM6uPC9ghzqs77iFg9Vcx9QlhzkEWyt/uVDsclErXKQV7uP0TvQv4wgCIIgCIIgCIIgCIIgCIIgCIIgCIIgCIIgCIIgCIIgCIIgCIIgCIIgCIIg/+v8Cx/FASJnAuQxAAAAAElFTkSuQmCC;" parent="1" vertex="1">
          <mxGeometry x="541" y="458" width="56" height="56" as="geometry" />
        </mxCell>
        <mxCell id="w5QW8rx5QOI1nEsf-yty-3" value="BigQuery" style="sketch=0;html=1;verticalAlign=top;labelPosition=center;verticalLabelPosition=bottom;align=center;spacingTop=-6;fontSize=11;fontStyle=1;fontColor=#999999;shape=image;aspect=fixed;imageAspect=0;image=data:image/svg+xml,PHN2ZyB4bWxucz0iaHR0cDovL3d3dy53My5vcmcvMjAwMC9zdmciIHhtbG5zOnY9Imh0dHBzOi8vdmVjdGEuaW8vbmFubyIgd2lkdGg9IjIwLjAwMTA0NTIyNzA1MDc4IiBoZWlnaHQ9IjIwLjAwMTA0NTIyNzA1MDc4IiBmaWxsLXJ1bGU9ImV2ZW5vZGQiIHZpZXdCb3g9IjAgMCAyMC4wMDEwNDUyMjcwNTA3OCAyMC4wMDEwNDUyMjcwNTA3OCI+JiN4YTsJPHN0eWxlIHR5cGU9InRleHQvY3NzIj4mI3hhOwkuc3Qwe2ZpbGw6I2FlY2JmYTt9JiN4YTsJLnN0MXtmaWxsOiM2NjlkZjY7fSYjeGE7CS5zdDJ7ZmlsbDojNDI4NWY0O30mI3hhOwk8L3N0eWxlPiYjeGE7CTxwYXRoIGNsYXNzPSJzdDAiIGQ9Ik00LjczIDguODN2Mi42M2E0LjkxIDQuOTEgMCAwIDAgMS43MSAxLjc0VjguODN6Ii8+JiN4YTsJPHBhdGggY2xhc3M9InN0MSIgZD0iTTcuODkgNi40MXY3LjUzQTcuNjIgNy42MiAwIDAgMCA5IDE0YTggOCAwIDAgMCAxIDBWNi40MXoiLz4mI3hhOwk8cGF0aCBjbGFzcz0ic3QwIiBkPSJNMTEuNjQgOS44NnYzLjI5YTUgNSAwIDAgMCAxLjctMS44MlY5Ljg2eiIvPiYjeGE7CTxwYXRoIGNsYXNzPSJzdDIiIGQ9Ik0xNS43NCAxNC4zMmwtMS40MiAxLjQyYS40Mi40MiAwIDAgMCAwIC42bDMuNTQgMy41NGEuNDIuNDIgMCAwIDAgLjU5IDBsMS40My0xLjQzYS40Mi40MiAwIDAgMCAwLS41OWwtMy41NC0zLjU0YS40Mi40MiAwIDAgMC0uNiAwIi8+JiN4YTsJPHBhdGggY2xhc3M9InN0MSIgZD0iTTkgMGE5IDkgMCAxIDAgMCAxOEE5IDkgMCAxIDAgOSAwbTAgMTUuNjlhNi42OCA2LjY4IDAgMCAxIC4wMDctMTMuMzYgNi42OCA2LjY4IDAgMCAxIDQuNzI3IDExLjQwM0E2LjY4IDYuNjggMCAwIDEgOSAxNS42OSIvPiYjeGE7PC9zdmc+;" vertex="1" parent="1">
          <mxGeometry x="611" y="328.74" width="95" height="95" as="geometry" />
        </mxCell>
        <mxCell id="w5QW8rx5QOI1nEsf-yty-5" value="" style="shape=image;verticalLabelPosition=bottom;labelBackgroundColor=default;verticalAlign=top;aspect=fixed;imageAspect=0;image=data:image/jpeg,/9j/4AAQSkZJRgABAQAAAQABAAD//gA7Q1JFQVRPUjogZ2QtanBlZyB2MS4wICh1c2luZyBJSkcgSlBFRyB2NjIpLCBxdWFsaXR5ID0gODAK/9sAQwAGBAUGBQQGBgUGBwcGCAoQCgoJCQoUDg8MEBcUGBgXFBYWGh0lHxobIxwWFiAsICMmJykqKRkfLTAtKDAlKCko/9sAQwEHBwcKCAoTCgoTKBoWGigoKCgoKCgoKCgoKCgoKCgoKCgoKCgoKCgoKCgoKCgoKCgoKCgoKCgoKCgoKCgoKCgo/8AAEQgCigNiAwEiAAIRAQMRAf/EAB8AAAEFAQEBAQEBAAAAAAAAAAABAgMEBQYHCAkKC//EALUQAAIBAwMCBAMFBQQEAAABfQECAwAEEQUSITFBBhNRYQcicRQygZGhCCNCscEVUtHwJDNicoIJChYXGBkaJSYnKCkqNDU2Nzg5OkNERUZHSElKU1RVVldYWVpjZGVmZ2hpanN0dXZ3eHl6g4SFhoeIiYqSk5SVlpeYmZqio6Slpqeoqaqys7S1tre4ubrCw8TFxsfIycrS09TV1tfY2drh4uPk5ebn6Onq8fLz9PX29/j5+v/EAB8BAAMBAQEBAQEBAQEAAAAAAAABAgMEBQYHCAkKC//EALURAAIBAgQEAwQHBQQEAAECdwABAgMRBAUhMQYSQVEHYXETIjKBCBRCkaGxwQkjM1LwFWJy0QoWJDThJfEXGBkaJicoKSo1Njc4OTpDREVGR0hJSlNUVVZXWFlaY2RlZmdoaWpzdHV2d3h5eoKDhIWGh4iJipKTlJWWl5iZmqKjpKWmp6ipqrKztLW2t7i5usLDxMXGx8jJytLT1NXW19jZ2uLj5OXm5+jp6vLz9PX29/j5+v/aAAwDAQACEQMRAD8A+qaKKKACiiigAooooAKKKKACiiigAooooAKKKKACiiigAooooAKKKKACiiigAooooAKKKKACiiigAooooAKKKKACiiigAooooAKKKKACiiigAooooAKKKKACiiigAooooAKKKKACiiigAooooAKKKKACiiigAooooAKKKKACiiigAooooAKKKKACiiigAooooAKKKKACiiigAooooAKKKKACiiigAooooAKKKKACiiigAooooAKKKKACiiigAooooAKKKKACiiigAooooAKKKKACiiigAooooAKKKKACiiigAooooAKKKKACiiigAooooAKKKKACijNGaACiijNABRRmjNABRRRQAUUUUAFFFFABRRRQAUUUUAFFFFABRRRQAUUUUAFFFFABRRRQAUUUUAFFFFABRRRQAUUUUAFFFFABRRRmgAooooAKKKKACiiigAooooAKKKKACiiigAooooAKKKKACiiigAooooAKKKKACiiigAooooAKKKKACiiigAooooAKKKKACiiigAooooAKKKKACiiigAooooAKKKKACiiigAooooAKKKKACiiigAooooAKKKKACijNFABRRRQAUUUUAFFFFABRRRQAUUUUAFFFFABRRRQAUUUUAFFFFABRRRQAUUUUAFFFFABRRRQAUUUUAFFFFABRRRQAUUUUAFFFFABRRRQAUUUUAFFFFABRRRQAUUUUAFFFFABRRRQAUUUUAFFFFABRRRQAUUUUAFFFFABRRRQAUUUUAFFFFABRRRQAUUUUAFFFFABRRRQAUUUUAFFFFABRRRQAUUUUAFFFFABRRRQAUUUUAFFFFABRRRQAUUUUAFFFFABRRRQAUUUUAFFFFABRRRQAUUUUAFFFFABRRRQAUUUUAFFFFABRRRQAUUUUAFFFFABRRRQAUUUUAFFFFABRRRQAUUUUAFFFFABRRRQAUUUUAFFFFABRRRQAUUUUAFFFFABRRRQAUUUUAFFFFABRRRQAUUUUAFFFFABRRRQAUUUUAFFFFABRRRQAUUUUAFFFFABRRRQAUUUUAFFFFABRRRQAUUUUAFFFFABRRRQAUUUUAFFFFABRRRQAUUUUAFFFFABRRRQAUUUUAFFFFABRRRQAUUUUAFFFFABRRRQAUUUUAFFFFABRRRQAUUUUAFFFFABRRRQAUUUUAFFFFABRRRQAUUUUAFFFFABRRRQAUUUUAFFFFABRRRQAUUUUAFFFFABRRRQAUUUUAFFFFABRRRQAUUUUAFFFFABRRRQAUUUUAFFFFABRRRQAUUUUAFFFFABRRRQAUUUUAFFFFABRRRQAUUUUAFFFFABRRRQAUUUUAFFFFABRRRQAUUUUAFFFFABRRRQAUUUUAFFFFABRRRQAUUUUAFFFFABRRRQAUUUUAFFFFABRRRQAUUUUAFFFFABRRRQAUUUUAFFFFABRRRQAUUUUAFFFFABRRRQAUUUUAFFFFABRRRQAUUUUAFFFFABRRRQAUUUUAFFFFABRRRQAUUUUAFFFFABRRRQAUUUUAFFFFABRRRQAUUUUAFFFFABRRRQAUUUUAFFFFABRRRQAUUUUAFFFFABRRRQAUUUUAFFFFABRRRQAUUUUAFFFFABRRRQAUUUUAFFFFABRRRQAUUUUAFFFFABRRRQAUUUUAFFFFABRRRQAUUUUAFFFFABRRRQAUUUUAFFFFABRRRQAUUUUAFFFFABRRRQAUUUUAFFFFABRRRQAUUUUAFFFFABRRRQAUUUUAFFFFABRRRQAUUUUAFFFFABRRRQAUUUUAFFFFABRRRQAUUUUAFFFFABRRRQAUUUUAFFFFABRRRQAUUUUAFFFFABRRRQAUUUUAFFFFABRRRQAUUUUAFFFFABRRRQAUUUUAFFFFABRRRQAUUUUAFFFFABRRRQAUUUUAFFFFABRRRQAUUUUAFFFFABRRRQAUUUUAFFFFABRRRQAUUUUAFFFFABRRRQAUUUUAFFFFABRRRQAUUUUAFFFFABRRRQAUUUUAFFFFABRRRQAUUUUAFFFFABRRRQAUUUUAFFFFABRRRQAUUZooAKKKKACiiigAooooAKKKKACiiigAooooAKKKKACiiigAooooAKKKKACiiigAooooAKKKKACiiigAooooAKKKKACiiigAooooAKKKKACiiigAooooAKKKKACiiigAooooAKKKKACiiigAooooAKKKKACiiigAooooAKKKKACiiigAooooAKKKKACiiigAooooAKKKKACiiigAooooAKKKKACiiigAooooAKKKKACiiigAooooAKKKKACiiigAooooAKKKKACiiigAooooAKKKKACiiigAooooAKKKKACiiigAooooAKKKKACiiigAooooAKKKKACiiigAooooAKKKKACiiigAooooAKKKKACiiigAooooAKKKKACiiigAooooAKKKKACiiigAooooAKKKKACiiigAooooAKKKKACiiigAooooAKKKKACiiigAooooAKKKKACiiigAooooAKKKKACiiigAooooAKKKKACiiigAooooAKKKKACiiigAooooAKKKKACiiigAooooAKKKKACiiigAooooAKKKKACiiigAooooAKKKKACiiigAooooAKKKKACiiigAooooAKKKKACiiigAooooAKKKKACiiigAooooAKKKKACiiigAooooAKKKKACiiigAooooAKKKKACiiigAooooAKKKKACiiigAooooAKKKKACiiigAooooAKKKKACiiigAooooAKKKKACiiigAooooAKKKKACiiigAooooAKKKKACiiigAooooAKKKKACiiigAooooAKKKKACiiigAooooAKKKKACiiigAooooAKKKKACiiigAooooAKKKKACiiigAooooAKKKKACiiigAooooAKKKKACiiigAooooAKKKKACiiigAooooAKKKKACiiigAooooAKKKKACiiigAooooAKKKKACiiigAooooAKKKKACiiigAooooAKKKKACiiigAooooAKKKKACiiigAooooAKKKKACiiigAooooAKKKKACiiigAooooAKKKKACiiigAooooAKKKKACiiigAooooAKKKKACiiigAooooAKKKKACiiigAooooAKKKKACiiigAooooAKKKKACiiigAooooAKKKKACiiigAooooAKKKKACiiigAooooAKKKKACiiigAooooAKKKKACiiigAooooAKKKKACiiigAooooAKKKKACiiigAooooAKKKKACiiigAooooAKKSloAKKKKACiiigAooooAKKKKACiiigAopKWgAooooAKKKKACiiigAooooAKKKKACiiigAooooAKKKKACiiigAooooAKKKKACiiigAooooAKKKKACiiigAooooAKKKKACiikoAWiikoAWiiigAooooAKKKKACiiigAooooAKKKKACiiigAooooAKKKKACiiigAooooAKKKKACiiigAooooAKKKKACiiigAooooAKKKKACiiigAooooAKKKKACiiigAooooAKKKKACkqG9u4LG1kuLqRYoYxlmboK8q8TePLy/d4NLLWtr03j/AFj/AI9vw/OueviYUF72534HLq2NlamtFu+h6bqOsafpv/H9eQQn+6zDd+XWsqPxtoDybBfAH1aNwPzxXibszsWdizHkknJNJXmSzSd/dSPpKfDNBR9+bb8rL/M+irS6t7yES2s0c0Z/ijYMP0qevnnTdRvNMuBNY3EkMn+yeD9R0P416L4c+IcM22DWkEEnTz0GUP1HUf56V10MwhU0no/wPLxuQV6HvUvfX4/d1+R6DRUcE0c8SywSLJGwyrKcgj61JXoHgNW0YUUUUAFFFJQAtFJS0AFFFFABRRRQAUUUUAFFFFABRSUtABRWJr/iXTdEQi6m3T4+WFOXP+H415j4h8a6lqxaOFjZ2p48uM/MR7t/hiuWvjKdHR6vsengspxGM1irR7v9O56jqPiXR9OcpdX8KyDqi5dh9QM4qvZ+MNCumCx6hGjH/nqCn6kAV4dRXnPM6l9ErH0K4ZoctnN3+X5W/U+jo5EkQPG6up5BU5Bp9eAaNreoaPKHsLhkGcmM8o31Fer+EfFttry+TIBBfKMmInhvdT/Su7D46FZ8r0Z4mYZLWwi54+9Hv29UdRRSUV2njC0UUUAFFFFABRRRQAUUlLQAUUlLQAUUUUAFFFFABRRRQAUUUlABS0lFAC0UUlAC0UUUAFFFFABRRRQAUUUlAC0UUUAFFFFABRRRQAUUUlAC0UUUAFFFJQAtFFFABRRRQAUUUUAFFFFABRRSUALRSUUALRSUUALRSUUALRRSUALRRRQAUUUUAFFJRQAtFFFABRRRQAUUUUAJS0UUAFJS0lAC013VEZ3IVVGST0Ap1cb8T9VNjoS2sTYlu2KHH9wfe/oPxrOrUVKDm+h0YXDyxNaNKPVnC+N/Esmu3xjhYrYQtiNf75/vH+npXNUUV8xUqSqScpbn6Vh6EMPTVOmrJBRRRUGwUUUUAauha/qGiS7rKY+WTlon5Rvw/qK9Q8N+N9P1bbDcEWl2eNjn5WPs39DXjVJXVQxdSjotV2PMx2U0MZrJWl3X69z6Rorxfw3401DR9sUpN3aDjy5Dyo/2W7fTpXqOg+ItO1uLNnMBKBloX4dfw7/UV7VDF062i0fY+Nx2U18HrJXj3X69jXpaSiuo8wWkopaACkopaACkoooAWikooAKKZNLHBE0kzrHGoyzMcAD3NcF4k+IUMG6DRVE0nQzuPkH0Hf8Al9ayq14UVebOrC4Kti5ctKN/yR2mqanZ6Xbme/nSGPtk8t7AdTXmviT4gXV3uh0hTawdPNb/AFjfT+7/ADrjdQvrrULhp72d5pT/ABMensPQVWrxsRmE6mkNF+J9fgcho0LTre9L8P8Ag/Mc7tI7PIzM7HJZjkk0lFFeee+FFJS0AFPgmkt5klgdo5UO5WU4INMpKYmk1ZntvgjxEuvadibAvYcLKo7+jD610leD+EtVbR9dtrndiIt5co9UPX8uv4V7wDkZFfQ4LEOtT97dH5/nOAWDr+58MtV+qCiiiuw8gWkoooAWiikoAKKKKACiiloAKSiloAKSiloASlpKKAClpKKAClpKKAFopKKAFopKWgApKWkoAWkpaSgBaSiigBaKSigBaKSloAKKSigBaKSigBaKKSgBaKKSgBaKSigBaKSigBaKSigBaKSloAKKKSgBaKSigBaSiigBaKKSgApaSigBaKSloASiiloAKKSigBaKKKAEpaKKACiiigBKWiigAooooAK8k+LM7P4hghP3I7cEfUk5P6D8q9brzT4uac3m2eoouUx5Dn06lf5muLME3Rdj2chnGOMjzdU7ep5zSUtFfPH34UlLRQAUUUUAFJS0UAFPhlkhlWSF2jkU5VlOCD7GmUUCavozv/DfxCmg2Qa0pmj6CdB84+o7/wCetekaffWuoWyz2cyTRN0ZT+h9DXzvV3StUvNKuRPYTvE/cDo3sR3r0cPmE4aVNV+J8/j8gpV7zoe7L8P+B/Wh9CUVxXhrx9Z3+yDVAtpcnjfn92349vx/Ou1UhlBUgg8givZpVYVVeDufIYnC1cLLkqxsxaKKStDnFpKKralex6fZS3U4kaOJcsI1LH8hSbSV2OMXJqK3ZZrmPEnjLT9G3xI32q8HHlRnhT/tHt9OtcN4m8dXup74bDdZ2h44PzuPc9voK4+vKxGZfZpfefU4Dh1u08U/kv1f+X3mvr3iLUNblzeTEQg5WFOEX8O/1NZFFFeTKcpu8ndn1VKlClFQpqyQlLSUVJoFFFLQAUUUlABRS0UAFe/eGZ2uvD2nTPne8CZPqcc14NaW8l3dQ28C7pZXCKPcmvoPTrVbKwt7VPuwxrGD64GK9XK0+aT6Hy3E848lOPW7+4s0UUV7J8gFJS0lABRS0UAJRRRQAUtFFABRRRQAUUUUAJS0UlABRRRQAUUUtABRUc0scETSTOscajLO5wAPUmuMufil4Rj1yz0i31aO9v7udLdEtAZVDMwAy4+UDJ9c+1FgO3pKWigAoopKACilooASiszXPEGkaDb+drWpWljHjIM8oUt9B1P4VmeDPG+ieMnv/wDhH55LiKyZUklaIorFs425wT0PaiwHT0lFLQAlLRSUAFFFLQAlFLRQAUlFFABRRRQAtFFJQAtJRRQAtJRRQAUUtJQAtFFJQAUtFFACUtFJQAtJS0lABS0lFAC0UlLQAUUUUAJRRRQAtFFFABRRRQAUUUUAFFFFABRRRQAVR1nT4tV0u4s5/uSrjP8AdPY/gcVeopNKSsyoScJKUd0fOt9ay2N5Na3C7ZYmKMPcVXr0v4q6HuRNXt15XEc4A7fwt/T8q81r5nEUXRqODP0nL8WsZQjVW/X1CkpaKwO0KKKKACiiigAopKKAFooooAK6Dw54s1HRCqI/n2neCQ8D/dPb+Vc/SVcJypvmi7MyrUKdePJVV0e6+HfFGna4gWCTy7nHzQScMPp6j6Vu183ozI6ujFWU5BBwQa7nw18QLm02QaurXMA4Eo/1i/X+9/OvXw+YqXu1dPM+Tx/D0oXnhndduvy7nq9JjPWqmmalaanbCexnSaM91PI9iOxq5Xpppq6PmpRcHyyVmeX/ABB8Irah9T0uPEPWaFR9z/aHt6jtXntfSDqroyuAykYIIyDXiHjfQ/7D1lkiB+yTfvIT6Duv4fyxXi4/CqH7yG3U+xyHM3WX1eq/eWz7rt8jn6KKSvMPpRaKSigBaKSigBaKKSgBaKKt6TYTapqMFnbjMkrYz6DuT9BzTSbdkTKShFyk7JHbfCvRPOuJNWuF+SPKQ5HVu5/AcfifSvUKq6ZZQ6dYQWlsu2KJQo9/c+5q1X02HoqjTUT82zDGPGV5VXt09Aooorc4gooooAKKKKACiiigAooooAKKKKACiiigAooooAKiubiG1gea5mjhhQZZ5GCqB7k1LXyd+1bcznx/Z25mk+zjT43EW47AxeTJx0zwOfanFXdhN2PZfE/xs8GaFvSPUG1O4X/lnYr5g/77OF/ImvIvFH7ReuXm+Pw9p1rpsZ4Esp8+T6jOFH5GvDKK2UEhXNrxF4q13xHLv1zVbu95yEkkOxfoo+UfgKu/C/8A5KR4Y/7CVv8A+jBXMV0/wv8A+SkeGP8AsJW//owU3sI+9aKKK5ywrJ1/xJo3h6Dzda1O0skxkCaUKzfRep/CtSXiN/oa/Oq5uJrqdprqaSaZ+WkkYsx+pNVGPMJux9UeKP2ifD1hvj0GyutVlHSRv3EX5nLH/vkV5F4o+OHjLXN6W95HpVu38Fkm1sf75y2foRXl9FaqCRNya8uri9uHnvJ5bidzlpJXLs31J5r6R/ZC/wCQZ4l/67Qf+gvXzRX0x+yF/wAgzxL/ANdoP/QXon8I0fQlFFFYFBRRRQAUUUUAFFFFABRRRQAUUUUAFFFFABRRWH4i8WaD4cjL63q1nZnGQkkg3n6IPmP4CgDcorxTU/2g9COp21joNhd37zTJF58v7mMbmAyM5Y9ehAr2um01uAUUUUgCiiigAooooAKKKKACiiigAooooAKKKKACiiigAooooAKKKKACiiigAooooAKKKKACiiigAooooAhu7eK7tpbedQ8UilGU9wa8F8Q6VLo2rT2cuSEOUb+8p6GvoCuN+JWh/wBpaV9tgXN1agtgdWTuPw6/nXDj8P7WHMt0e3keO+rV/Zyfuy/PozyCkoor58+9ClpKKAFopKKACiiigAooooAKKKKAFopKKALem6jd6bciexneGQd1PB9iO4r0rw18QLe62Qawq203QTL9xvr/AHf5V5VRXRQxNSi/denY4Mbl1DGL94te63PpCN1kRXjYMjDIIOQRXM/EXSxqPhyaRVzNa/vkPfA+8Py/kK8x8PeJtR0NwLaXfb5+aCTlT9PQ/SvUdB8VaZ4ghNuW8m4ddrQSHk564Pf+devDFU8VB03o2fJ1ssxGWVVXh70U73X6o8TpKnvYDa3s9u3WKRoz+BxUFeC1bQ+6i1JXQUUUUhi0lFFABS0lFAC16p8LtD+y2TapcLia4GIgf4U9fx/kBXCeEdGbXNZit8HyF+eZh2Udvx6V7tGixRrHGoVFGFA6AV6mXUOZ+1l02PmOIsdyQWGg9Xv6dvmOooor2j44KKKKACiiigAooooAKKKKACiiigAooooAKKKKACiiigAr5J/at/5KTaf9g2L/ANGSV9bV8k/tW/8AJSbT/sGxf+jJKuG4meM0UUVsSFdP8L/+SkeGP+wlb/8AowVzFdP8L/8AkpHhj/sJW/8A6MFD2A+9aKKK5ixsv+qf6Gvzlr9GZf8AVP8A7pr85q1p9SZBRRRWggr6Y/ZC/wCQZ4l/67Qf+gvXzPX0v+yF/wAgzxL/ANdoP/QXqZ7DW59C0UUVgUFFFFABRRRQAUUUUAFFFFABRRRQBg+KvF+g+FIEl8QalBZiQEojZZ3x12qMk9R0FeP+J/2j9Nt98XhvSZ7x+gmum8pPqFGSR9dtYv7Xv/IU8Nf9cZ//AEJK+e61jBNXZLZ6F4n+MXjTX96PqrWNu3/LGxHkj/vofMfxNefyyPNK0krs8jHLMxySfc02itErCNHw3/yMWl/9fUX/AKGK/Quvz08N/wDIxaX/ANfUX/oYr9C6yqDQUUUVmUFFFFABRRRQAUUUUAFFFFABRRRQAUUUUAFFFFABRRRQAUUUUAFFFFABRRRQAUUUUAFFFFABRRRQAUhGQQelLRQB4h460P8AsXWnES4tJ8yQ+g9V/D+WK52vdfGOirrmiywAD7Qnzwt6MO30PSvC3Ro3ZHUqykgg9Qa+dxuH9jUutmfoGTY/63QtJ+9HR/oxKKKK4z2AooooASloooAKKKKACiiigBKWkpaACiiigAoBIIIJBHQiiigBZHaSRnkZmdjlmY5JPqabS0UBsFFFFACUtFFACUo54FFdh8N9C/tPVftk6ZtbUhuejP2H4dfyrSlTdWahHqc+KxEcNSlVnsju/AWh/wBjaMpmXF3cYkl9R6L+H8ya6akpa+npwVOKjHZH5pXrSr1JVZ7sKKKKsyCiiigAooooAKKKKAEpaKKACiiigAooooAKKKKACiiigAr5J/at/wCSk2n/AGDYv/RklfW1fJP7Vv8AyUm0/wCwbF/6Mkq4biZ4zRRRWxIV0/wv/wCSkeGP+wlb/wDowVzFdP8AC/8A5KR4Y/7CVv8A+jBQ9gPvWiiiuYsZL/qn+hr85q/RmX/VP9DX5zVrT6ksKKKK0EFfS/7IX/IM8S/9doP/AEF6+aK+l/2Qv+QZ4l/67Qf+gvUz2Gtz6FooorAoKKKTNABS0UUAFFFFABRRRQAUlLRQB8z/ALXv/IU8Nf8AXGf/ANCSvnuvoT9r3/kJ+Gv+uM//AKElfPdbw2Je4UUUVQjR8N/8jFpf/X1F/wChiv0Kr89fDf8AyMWl/wDX1F/6GK/Qusqg0FFFFZlBRRRQAUUUUAFFFFABRRRQAUUUUAFFFFABRRRQAUUUUAFFFFABRRRQAUUUUAFFFFABRRRQAUUUUAFFFFABXlHxQ0L7JfLqduv7i4OJcfwv6/j/ADHvXq9U9WsIdT06ezuBmOVcH1B7Ee4PNc+JoKtTcevQ78uxrwddVOmz9D56oq1qljNpuoT2dyMSxNtPv6EexHNVa+aaadmfo8ZKaUo7MKKKKRQUUUUAFFFFABRRRQAUUUUAFFFFABRRRQAUUUUAFFFFABRRRQBNZ20t5dRW1upeWVgij3Ne8+H9Ki0bSoLOHB2DLt/eY9TXF/CzQdsbavcr8zZSAHsOhb+n516LXuZfh+SPtJbv8j4niDH+2q/V4P3Y7+v/AABaKKSvSPnRaKKKACiiigAooooAKKKKACikpaAErkvHPxD8O+Cof+Jzej7URlLSEb5n/wCA9h7nArzj41/GddBkn0LwpIkuqDKXF3wy25/ur2L+vYe56fL15dXF7dS3N5NJPcSsWkllYszE9yT1q4wvqxNntvir9orXb13j8OWNtpsHRZZR50p9+flH0wfrXm2qfETxhqjs154j1Mg9VjnMS/8AfKYH6VytFaqKRNzQOuaszbm1S+LepuH/AMav2HjPxPp7BrPxBq0WOy3b4/LOKwKKdgPWvDfx78YaU6LqMltq0A6rcRhHx7MmOfcg17p8P/jP4b8WvHayyNpWpvgC3uWG1z6I/Q/Q4PtXxjRUuCY7n6OV8k/tW/8AJSbT/sGxf+jJK0/gl8ZrjTLi30HxbcNNpzkR297Ictbnsrnunuen06Zf7VZDfEezKkEHTIiCO/7ySoirSBu6PGqKKK1EFdP8L/8AkpHhj/sJW/8A6MFcxXT/AAv/AOSkeGP+wlb/APowUPYD71ooormLGS/6p/oa/Oav0Zl/1T/7pr85q1pkyCiiitBBX0v+yF/yDPEv/XaD/wBBevmivo79lS+ttM8OeLb2/mSC1geGSWRzgKoV8mpnsNH0XNLHBC8s0ixxICzO5ACgdST2FeLePP2gNE0d5LXw3D/bF2vBmzsgU/Xq/wCHHvXjvxf+K2oeN72SzsnktPD8bfu4AcNNjo8nr7L0H15rzGpjDuDZ6H4i+MfjbW3bOrvYwnpFYjyQP+BD5vzNcXd6zql45e71K9nY95Z2Y/qaoUVaSQi1HqN7E26K8uUYd1lYH+ddDo/xF8YaOymx8RaiAvRJZjKn/fL5H6VylFOwHvvhH9o3Urd0h8U6bFeQ9DcWn7uQe5U/K34ba998HeM9B8YWf2jQb+OcqMyQn5ZY/wDeU8j69PQ18C1c0jU77R9QhvtLupbW7hOUlibBH+I9qhwT2Hc/RCivIPgv8X7fxgqaTrfl22vKvykcJdADkr6N6r+I9B69WTVtyhaKKKQHzP8Ate/8hTw1/wBcZ/8A0JK+e6+hP2vf+Qn4a/64z/8AoSV891vDYh7hRRRVAT2Fy1nfW91GAzwyLIA3QlSDz+Ve2f8ADSPiP/oD6R+Un/xVeGUUmk9wPc/+GkfEf/QH0j8pP/iqP+GkvEf/AEB9I/KT/wCKrwyilyoLn0/8LPjXrXjDxxYaJfabp0FvcCQtJCH3DbGzDGWI6ivfa+Lf2c/+SvaL/uz/APol6+0qzmrPQpBRRRUDCiiigAooooAKKKKACiiigAooooAKKKKACiiigAooooAKKKKACiiigAooooAKKKKACiiigAooooA83+Leljba6nGOc+TKR37qf5j8q82r3Xxrai88LajGRkrEZB9V+b+leE14GY0+SrddT7vh7EOrheR/ZdvluLSUtFcB7olFLRQAlLRRQAUUVq+G9CutdvhBbDbGvMkpHCD/AB9BVRi5vljuZ1asKUHObskHhzQ7rXb4QWo2ovMkpHyoP8faun8QfD2WysDcabO908Yy8TLhiPVcfyr0XRNKtdHsEtbNNqLyzHq59SfWtCvapZdBQtPc+MxPENeVbmo6QXTv6nzdRXp3j7wd5/malpMf77700Cj7/wDtL7+o7/Xr5jXk16EqEuWR9XgcdTxtP2lP5rsFJS0lYnYLSUtFABRRSUALVnTLR9Q1C2tIvvzSBAfTJ61WrrvhdaifxQsjDIgiaQfXhf8A2ataMPaVFHuc2MrewoTq9kz120t47S1it4F2xRKEUegAqaiivqUraH5i227sSlpKKBC0UlLQAUlLRQAUUUlAC0UUUAJXj37QfxJbwppQ0bRptutXqEtIp5tojxu9mPIHpyfSvUtf1W20PRb7VL5tttaQtM57kAZwPc9B9a+CfFeu3fiXxDfavqDZuLqQuRnhB/Co9gMAfSrhG7E2ZTEsxZjknkk96SiitiQooooAKK7zwN8KvFHjGNLiws1ttPbpd3ZMaMP9kYJb8Bj3r1Sw/ZoTygdQ8St5ndYLTgfiW5/IVLkkFj5vor6Pv/2aB5RNh4lJkHRZrTg/iG4/KvK/HHwr8U+Do3uL+zW5sF63doTJGP8Ae4BX8QBQpJhY4StHWdZvdYWwGoSmVrK2W0ic9fLVmKgn23Y+gFZ1FUAUUUUAFdP8L/8AkpHhj/sJW/8A6MFcxXT/AAv/AOSkeGP+wlb/APowUPYD71ooormLGS/6p/oa/Oav0Zl/1T/Q1+c1a0+pMgooorQQVqW2uXtt4du9Fgk2Wd3Mk84HWQoDtB9sknHrj0rLooAKKACSAOteqeCfgd4p8SQx3V2kekWTjKvdA+Yw9RGOfzxSbS3A8ror6dtv2atMWIC58Q3skmOscCoPyJP86p6n+zTF5ZOmeJHEnZbi2BB/FW4/I0udBZnzdRXb+Ovhh4m8FqZtTsxNYA4+2WxLxfjxlfxAriKpO4BRRRQBJbTzWtzFcW0jxTxMHSRDhlYHIIPY19ofBD4gp458NbbxlXWrICO6Ucbx/DIB6HHPoQfaviuut+FniyXwb40sNUDMLXd5N0g/jhbhvy4Ye4FTKN0CZ93UU2KRJYlkjYMjgMrA5BB6EU+sCz5n/a9/5Cnhr/rjP/6ElfPdfQn7Xv8AyFPDX/XGf/0JK+e63hsQ9woooqgCipLaCS5uIoIV3SyuERc4yScAV6H/AMKT+IH/AEAf/JuD/wCLobSA84or0f8A4Un8QP8AoA/+TcH/AMXR/wAKT+IH/QB/8m4P/i6XMgH/ALOf/JXtF/3Z/wD0S9faNfMfwW+F/i/w38R9M1TWdJ+z2MKyh5PtET43RMo4ViepFfTtZTd2UgpKWioGFJS0lAC0UUUAFFFFABRRRQAlLRSUAFFLRQAUUUUAFFFFABRRRQAUUUUAFFFFABRRRQAUUUUAFFFFAFTVlDaXeK3QwuD/AN8mvnivf/E84tvDupSk42wOB9SMD9TXgNeNmj96KPsOGE/Z1H5oKSloryj6gKKKKACiiigBK988LWFpYaJapYhfLeNXLjq5I5YmvBK7DwN4tfR5Vs75i+nseD1MR9R7eoruwFaFKfv9ep4ueYOriqC9k/h1t3/4Y9hopkUqTRJJE6ujDcrKcgj1p9fQHwOwV5B8UbC0s9biktQqSToXlRemc/e/H+ld74w8TQaBaYG2W9kH7uLP/jx9v514vfXc9/dyXN3I0k0hyzGvKzGtDl9nu/yPqOHsHW9p9YekdvX/AICIKKKK8Y+wEpaKKACiiigArvfhCB/al+e/kj/0KuCrtPhRcCLxHLEx/wBdAwH1BB/lmunBu1aJ5ubxcsFUS7HrtFFFfSn5yFFJRQAtFFFABRRRQAUUUUAFFFFAHhv7VniI2HhOw0SB8SajN5koB/5ZR4OPxYr/AN8mvlWvWP2mtWOo/E+e1DZj0+3jtwO2SN5/9Dx+FeT1vBWRDCiiiqAK95/Z9+FMGuRp4l8SQeZp6sfslq44nIPLsO6g8AdyDnjr474Q0SXxH4n0zSIMhrydYiw/hXPzN+Ayfwr7802yt9N0+2srKMRW1vGsUaDoqqMAfpUTlbQaROiKiKiKFVRgADAAp1FFYlBTXRXRlcBlYYIIyCKdRQB8u/tBfCiHRI5PEvhqAR6ezD7XaoOICTw6jspPBHYnjjp4LX6J6jZW+o2FzZXkay21xG0UiN0ZWGCPyNfAnjDRJPDnijVNHmyWs52iDH+JQflb8Rg/jW0JX0JaMeiiirEFdP8AC/8A5KR4Y/7CVv8A+jBXMV0/wv8A+SkeGP8AsJW//owUPYD71ooormLGS/6p/oa/Oav0Zl/1T/Q1+c1a0+pLCiiitBBRRXZ/B7wyviv4g6Vp86b7RXNxcjsY05IP1OF/4FQ3YD2/9n34VW9hYW3ifxFbrLqE4EtnBIuRAh6OR/fPUegx36e80ABVAAAA4AFLXO3csKKKKQEc8MdxC8M6JJE6lXRxkMD1BHcV8k/H/wCGCeEb1dZ0SMjRLp9rRDn7NIedv+6ecemMelfXVY/i/QrfxN4Z1HR7sDyruFowSM7G6q31BAP4VUXZiaufn3RU15bS2d5Pa3CFJoXaORT2ZTgj86hrckKKKKAPtH9nrxEdf+Glgsz7rnT2NlISeSFwU/8AHCo/A16XXzH+yPqxj1nXdIZvlngS6QehRtp/PePyr6crCSsykfM/7Xv/ACFPDX/XGf8A9CSvnuvoT9r3/kJ+Gv8ArjP/AOhJXz3WsNhPcKKKKoRo+G/+Ri0v/r6i/wDQxX6F1+enhv8A5GLS/wDr6i/9DFfoVWVQpC0UUVmMKKKKACiiigBKWiigAooooAKKKKACiiigAooooAKKSigBaKKKACiiigAooooAKKKKACiiigAooooAKKKSgBaKSkd1jRndgqqCST0AoA4v4q6iLbQo7NW/eXTjI/2V5P67a8krb8Y6ydb1uW4Qn7On7uEH+6O/49axK+bxdb2tVyWx+jZThHhcNGEt3q/VhRRRXKekFFFFABRRRQAUUUUAdf4H8XPo0gtL5mfT2PB6mI+o9vb/ACez17xzplnYltPmS7umHyIucD3Y+nt1rx2iuynjqtOHIjyMRkuGxFb20lbulsye+u57+7kubuRpJpDlmP8AnpUFFFcjbbuz1oxUVZLQKKKKQwooooAKKKKACtDw9f8A9l63Z3mSFikG7H908N+hNZ9FVGTi010IqQVSLhLZ6H0ejB1VlIKkZBHelrjPhprg1DSvsM7f6VaDAz/FH2P4dPyrtK+opVFVgprqfmWKw8sNVlSnugopKWtDnCiiigAooooAKKKKACiiigD4K+KF2b74jeJZyc51CZAfZXKj9AK5itbxcS3ivWieSb2cn/v4aya6VsQFFFFAHsH7LWnLefEp7pxkWVlJKp9GYqn8navryvmD9kVAdf8AED/xC1jA/Fz/AIV9P1jPcpBRRRUDCiiigAr5C/ak05bP4mC5QYF7ZRTMfVgWT+SCvr2vl/8Aa5jA8RaBJ3a1kX8n/wDr1cNxM8DooorYkK6f4X/8lI8Mf9hK3/8ARgrmK6f4X/8AJSPDH/YSt/8A0YKHsB960UUVzFjJf9U/0NfnNX6My/6p/oa/OatafUmQUUUVoIK+gv2RdOWTV/EOpMPmhgit1P8AvszH/wBFivnyvp/9kVAPD/iCTu11Gv5If8amew1ue/UUUVgUFFFFABRRRQB8O/HHT10z4reIoUXCvOJxj/poiuf1Y1wteqftMIF+K96R1a3gJ/74A/pXlddEdiGFFFFMD1D9my7Nt8WdOjBwLmGaI+/7st/NRX2ZXxF8AyR8XPDpH/PSQf8AkJ6+3KxqblI+aP2vf+Qp4a/64z/+hJXz3X0J+17/AMhTw1/1xn/9CSvnutIbCe4UUUlUI0vDf/IxaX/19Rf+hiv0Lr89PDf/ACMWl/8AX1F/6GK/Qusqg0FFJS1mUFFFFABRRRQAUUUlAC0UUlAC0UUUAFFFFABRRRQAUUUUAFFFFABRRRQAUUUUAFFFFABRRRQAUUUUAFFFFABXBfFDXvstkul2z4muBmUj+FPT8f5D3rsdWv4dM06e8uDiOJdx9z2A9yeK8E1S+m1LUJ7y5OZZW3H29APYCvPzDEezhyLd/ke/kOA+sVvbTXux/F/8Df7irRRRXgn3IUUUlAC0UUUAFFJS0AJS0UUAFFFJQAtFFJQAtFFFABRRRQAUUlFAC0UlLQBe0PU5tI1SC9g+9GfmXP3l7j8q97sLuK+sobq3bdFKoZT7V87V6F8LNd8qZtIuW+SQl4Cezd1/Hr+frXo5fiOSXs5bP8z53iDAe2pfWIL3o7+n/A/zPT6KKK90+JCiiigAooooAKKKKACkpaKAPz98bxGDxpr8LDmPULhT+EjCsWu5+OGnnTfir4hiK4Elx9oHuJFD/wA2NcNXQtiAooopge7fsk3ITxdrVtnmWxEgH+7Io/8AZq+pq+Kf2fNZXRvinpRlbbFebrNz/vj5f/Hwtfa1Yz3KQUUUVAwooooAK+Wf2t7gN4v0W3zzHYmQ/wDApGH/ALLX1NXxb+0Pq66t8VNUEbborJUs1Puoyw/76LCrp7iZ5rRRRWxIV0/wv/5KR4Y/7CVv/wCjBXMV0/wv/wCSkeGP+wlb/wDowUPYD71ooormLGS/6p/oa/Oav0al/wBU/wBDX5y1rT6kyCiiitBBX0x+yFcBtM8S2+fmSaCTH+8rj/2WvmevbP2UtXWz8c32myNhb+0OwerxncB/3yXqZ7Atz6wooorAsKKKKACiikJwCTwKAPjD9o64E/xc1dVORCkEf4+Up/rXmddB8QdXXXvG+uanG26K4u5GjPqmcL/46BXP10LYgKKKKYHov7PkJm+LugYHCGZz+EL19r18j/sraebr4iz3ZHyWdlI2fRmKqP0LflX1xWNTcpHzP+17/wAhTw1/1xn/APQkr57r6E/a9/5Cfhr/AK4z/wDoSV891pDYl7hRRRVAaPhv/kYtL/6+ov8A0MV+hdfnn4dIXxBphJwBdREn/gYr9DKyqDQUUUVmUFFFFABRRRQAUUUUAFFFFABRRRQAUUUUAFFFFABRRRQAUUUUAFFFFABRRRQAUUUUAFFFFABRRRQAUUVieL9aXQ9FluAR57fJCp7sf8Ov4VM5qEXKWyNKVKVaapwWrOE+KGu/a71dLt2/c253SkfxP6fh/M+1cJSu7SOzyMWdiSzHqT60lfMVqrqzc2fpWDwscLRjSj0/MKSlorI6gooooAKKKKACiu38FeH7DxFod1FNmK8hlysydQpAwCO4yDWJ4h8MajoblriPzLbPE8Yyv4+n41vLDzUFUtdM4oZhRlWlh27SXR9fQwqWiisDtCiiigAooooAKKKKACiiigAoopKAFooooAKfBNJbzxzQsUljYMrDqCOhplFMTSasz3vwxq8et6PDdpgSY2yqP4XHUf1+hrWrxj4ea7/ZOsCCZ8Wl0QjZ6K38Lf0/H2r2evo8JX9tTu91ufnWa4F4Ou4r4Xqv68gooorqPNCiiigAooooAKKKKAPlv9rPRDb+JdJ1pFxHd25t3I/vxnIz9Qw/75rwevtn48+GD4n+HN/HAm+8sv8ATIABySgO4D6qWGPXFfE1bQd0SwoooqxElvNJbXEU8DlJYmDo69VYHII/Gvu74Z+Lbfxp4QstVhZRcFfLuYx/yzlA+YfTuPYivg2uy+GHj7UvAWtm6sx59lNhbq0ZsLKo6EHsw5wamcboE7H3VRXLeB/HmgeM7NZdGvUafbmS1kIWaP6r6e4yPeuprAsKKK57xh4x0PwhYm512/ig4ykIO6WT2VOp+vT1NADfiF4otvB/hO+1e6KlokKwRk/62U/dX8+vsCe1fBl5czXt5PdXLmSed2kkc9WZjkn8zXbfFn4jX3j/AFdZHVrbSrckWtrnOPV29WP6dB3J4Ot4RsiWwoooqhBXT/C//kpHhj/sJW//AKMFcxXT/C//AJKR4Y/7CVv/AOjBQ9gPvWiiiuYsZL/qn+hr85q/RmX/AFT/AENfnNWtPqTIKKKK0EFanhbWrjw54i0/V7P/AF1nMsoGcbgOqn2IyPxrLooA/Qrw7rNn4g0Sz1XTZRLa3UYkQ9x6g+hByCPUVpV8X/Bz4pXfgO8a1u0e70Kd90sCn5om/vp7+o7+1fW3hfxRo3iiwW80LUIbuIgFgpw6ezKeVP1FYSjYpO5tUUUVIwrzb49eMo/Cfge5ihlA1PUVa2tlB5AIw7/gD19SK0fiF8TfD/gm2kF7crc6lj93YwMDIx7bv7g9z+Ga+O/HXi3U/Gevzarq0g3t8sUS/chTsqj0/meauMb6ibOfooorYkKKKms7aa8u4LW2jaSeZ1jjRerMTgD8zQB9PfsmaIbXwzq2syLhr2dYYye6RjqP+BOR/wABr3isLwPoMfhjwlpejQ4P2SEI7Doznl2/FiT+Nbtc8nd3LR85ftfWxKeF7kDgG4jJ+vlkfyNfOFfXX7UulNffDhL2NctYXccrH0RgUP6stfItaw2JYUUUVYhUZkdXQ4ZTkEdjX6BeDtbh8SeF9M1e2ZSl3AshA/hbHzL+DAj8K/PyvUPg58V7vwJI1jexPeaHM+9olPzwt3ZM8c91PX27xON0NM+zKK5Dw98SPCOvwJJYa7ZK7DmGeQQyA+m1sH8s1sz+JNDt1Lz6zpsaju91GB+prKxRrUVzGn+PvC2pa3BpGm61aXmoT7tkVuxkB2qWPzKCo4B6munpAFFFFABRRRQAUUUUAFFFFABRRRQAUUUUAFFFFABRRRQAUUUUAFFFFABRRRQAUUUUAFFFFACE4HNeKePdc/tnWmELZtLfMcXofVvx/kBXffEfXP7L0j7NA2Lq7BQY6qn8R/p+PtXjlePmVf8A5dR+Z9bw7gbJ4qa8l+r/AE+8KKKK8k+rCiiigAooooASloooA7D4X6iLPxAbaRsR3abP+BDkf1H416+6LIjK6hlIwQRkEV85wSyW88c0LFZI2Dqw7EHINe9eHNWj1rSILyIgMwxIo/hcdRXtZbWTi6T6Hx3EeEcakcTHZ6P1W34fkcx4l+H9td7p9IZbac8mI/6tvp/d/lXmmp6dd6ZcmC+geGQdAw4PuD0Ir6GqpqWnWmpWxgvoEmiPZh09wexrTEZfCprDR/gc2Az6th7Qre9H8V/n8z55oru/Enw/uLXdPo7Ncw9TC331+n97+f1rhZEaN2SRWV1OCrDBBrxqtGdJ2mj7DC4yji481KV/zQlFFFZHUFFFFABRRRQAUUUUAFFFFABRRRQAV7R8Ptd/tfRljmbN3bYSTJ5Ydm/z3FeL1r+FNYfRNZhuhkwn5JVHdD1/Lr+FdWDr+xqXez3PLzbA/XKDS+Jar/L5nvVFMikWWJJI2DI4DKw6EHvT6+kPzvYKKKKACiiigAooooAQ8jB6V8W/HbwK/g3xfLJaxEaRqBaa1IHCHPzR/gTx7Ee9fadc9478Kaf4z8OXGk6mvyP80UoHzQyDo6/T9QSKqMrMTVz4Eorf8beFNT8Ha7NperwlZF5jlUHZMnZlPcfy6GsCtyQooooAfDLJBKssEjxyocq6MQVPqCK7HTvil420+IR2/iS/KDgecwl/Vwa4uii1wO1v/ip44voyk/iS+VTx+5KxH80Arj7q5nup3nuppJpnOWkkYszfUnk1FRRawBRUtrbzXdzFb2sTzTysEjjQZZmJwAB3Nd18UPAx8Dab4bt7o7tTu4JJ7sg5CtlQEH+6O/ck+1FwOAooooAK6f4X/wDJSPDH/YSt/wD0YK5iun+F/wDyUjwx/wBhK3/9GCh7AfetFJS1zFjJf9U/+6a/Oav0Zl/1T/7pr85q1p9SZBRRRWggoor0rwR8PpPGPw31m/0uMvrOnXYaNB1mjKAsn14yPxHehuwHmtT2V5dWFwtxY3E1tOv3ZIXKMPoRzULqUcq4KspwQRgg0lAHZ23xS8b28Yjj8S6gVHHzuHP5sCar6n8RvGGpxGK88R6k0bcFUmMYP1C4zXKUUrIBWYsxZiSxOST3pKKKYBRRRQAV7v8AsxeBG1HV28VajF/oVkSloGHEk2MFvoo/U+1cH8Jvh1f+PdaCKHg0iBh9qu8dB/cX1Y/p1Pv9qaPptpo2l22nabAsFnbII4416AD+Z9+9ZzlbQaRdooorIoyvFWjQ+IPDmpaTc8RXkDwlsfdJHDfgcH8K+AtUsLjS9SurC9jMdzbStDKh7Mpwf5V+iVfOX7TXw7kkkPi/R4S2FC6hGg5AHCy4+mAfoD61cHZ2E0fOFFFFbEhRRRQAUUUUAelfs5/8le0X/dn/APRL19pV8W/s5/8AJXtF/wB2f/0S9faVY1NykFFFFQMKKKSgBaKKKACiiigAooooASloooASilooAKKKKACiiigAooooAKKKKACiiigAqO4mjt4ZJpmCRxqWZj0AHJNSVwfxV1drbTodOhOHufmkI/uDt+J/kayrVVSg5vodODw0sVWjRj1/LqefeJtWfWtYnvHyEJ2xKf4UHQf1+prLoor5iUnJuT3Z+mU6caUFCCskFFFFSWFFFFABRRSUALRRRQAV0XgvxG+gah+83NZTYEqDt6MPcVztABJAAyT0FXTnKnJSjujGvQhXpunUV0z6Mtp4rqCOa3dZIpBuVlOQRUtcB8N9M12xXddEQ6c/zeRLnfn1A/h/H8q7+vpqNR1IKTVj83xmHjh6zpwkpJdUFYfiHwxp2uITcx+XcY+WePhh9fUfWtyirnCM1yyV0Y0qs6MlOm7M8Q8R+EtR0QtIyfaLQdJox0/3h2/lXO19IEBgQQCDXF+JPAVlqG6bTStncnkqB+7b8O34flXk4jLWvepfcfVYDiJO0MUrea/Vf5HkdFX9Y0e+0e48q/gaMn7rdVb6Gs+vKlFxdmfTwnGpFSg7pi0UlLSLCikpaACiiigAooooAKKKKAPVPhbrn2myfS52zNbjdET3T0/A/oRXe18+aJqEmlarbXsWcxPkj+8vcfiM17/bypPBHNEd0cihlPqCMivfy+v7SnyvdHwmf4JYev7SO0/z6/5klFFFd54QUUUUAFFFFABRRRQBzvjjwdpHjTR20/WrfeoyYpk4khb+8p7fToe9fJPxJ+E2veCpZJ/KbUNIByt5AhO0f9NF6qffp719sUjKGBDAEHgg1UZNCaufnJRX2p4t+DHg/wARu8xsW067fkzWLCPJ90wV/TNeYat+zVdq5OkeIYJFPRbqAoR/wJSc/kK0U0Kx89UV7U37OXi0NgX+ikevnSf/ABur9h+zZrcjD7frmnQL3MKPKfyIWnzIVjwatbw34d1bxLqK2Wh2M15cHqI1+VB6s3RR7mvp7w3+zz4X051k1e5vNWkHVGbyYz/wFfm/8er1rRtI0/RbJbTSbK3s7ZekcEYQZ9TjqfepdRdB2PNfg78IbPwUq6nqrR3uvMuA4GY7cHqEz1Pq34DHOfOv2u/+Q54d/wCvaX/0IV9O1wnxF+GWjePrqzuNYuL6F7VGjQWzqoIJBOcqfSoUtbsdj4eor6y/4Zz8Jf8AP/rX/f6P/wCN0f8ADOfhL/n/ANa/7/R//G6050Kx8m10/wAL/wDkpHhj/sJW/wD6MFfRf/DOfhL/AJ/9a/7/AEf/AMbq/oPwG8MaLrdhqlre6s1xZzpPGsksZUspBGcIOOKHNBY9booorEobL/qn+hr85a/RthuUg9xivHv+GePBn/PXV/8AwIX/AOIq4SS3E1c+RaK+uv8AhnjwZ/z11f8A8CV/+Io/4Z58Gf8APXV//Alf/iKv2iFZnyLX1F+yN/yLGu/9fi/+gVsf8M8eDP8Anrq//gSv/wARXcfD/wAC6T4Fsrq10RrpormQSv8AaJA5yBjjAFTKaasCRwPxh+C1t4plm1jw4YrPWW+aWJuIrk+p/uv79D39a+Xdf0LVPD2oPZa1Yz2dyv8ABKuNw9QejD3HFfoVWdrmi6ZrtkbTWLG2vbc/wTIGAPqPQ+4pRnYbR+elFfWfiH9njwvfu0mkXV7pbnoisJox+DfN/wCPVxl3+zTqSsfsniKzkXsZbdkP6E1pzoVj5/or3uL9mvWCw83X9PVfVYnY/wBK6LRv2bNMhdW1jXru6HUpbQrCPpklv6Uc6FZnzGis7qiKWdjgKBkk17N8MvgXq2vSRX3idZdL0vhvKYYnmHoAfuD3PPt3r6K8JfD3wv4U2vo2kwR3AH/HxJ+8l/76bJH4YFdXUOp2HYoaFo9hoWlwadpNrHa2cK7UjQcfU+pPcnk1foorMoKKKKACmyIksbRyKrowKsrDIIPUEU6igD5m+LnwKuIJ59W8ExedbsS8unA/NH6+V6j/AGeo7Z6DwC4hltpnhuI3imQlXR1Ksp9CD0r9GK5rxZ4H8OeK0/4nulW9zLjAmA2Sr9HXB/DOK0jO24mj4Ior6h1r9m3R53ZtG1u9s88hJ41nA9uNp/nXL3P7Nmtqx+za7psi9jIjof0Bq+dE2PBqK9yT9m7xKW+fV9HC+oaUn/0CtnS/2aX3BtV8RqF7pbW2Sf8AgTN/SjnQWPPv2c/+SvaL/uz/APol6+wLvXtIsrtrW81Wwt7pUMjQy3CK4UDcWKk5xgE59BXH+BfhH4Y8G38WoafHc3GpRAhLm5myVyCDhVwvIJHStvxZ4ZfXTebJo4xPpdzp/wAy5wZSmG+g2nj3rOTTZSOhiureaaSGKeJ5o1VnRXBZQ2dpI7A4OPXBqauS8E+EpPDeoalcy3v2s3cUMOSuGCxGQJn6RtGvuVJ711tQMKKKKACiiigAooooAKKKKACiiigAooooAKKKKACiiigAooooAKKKKACiiigAryH4r7/+Eli3fd+zLt+m5v6169Xn/wAWtNaWxtdQjXPksY5Mf3W6H8/51x4+DlRduh7GRVY08ZHm63R5dRRRXzp+gBRSUtABRSUUALRRSUALRVrTdOu9TuRBYwPNIeyjge5PQCvSvDfw+t7XZPrDLczdRCv+rX6/3v5fWuihhqlZ+6tO5wY3MqGDX7x69lucL4f8Najrjg2sWy3Bw08nCj6ep+lep+G/CGnaIFkC/aLsdZpB0/3R2/nXRRokaKkaqqKMBVGABTq9rD4KnR1erPjcfnNfF3ivdj2X6sKKKK7DyAooooAKKKKAIL20t723eC7hSaJuquMivOvEnw8ZN0+hvvXqbeQ8j/db/H869MorGth6dZWmjswmPr4OV6T07dD5yubea1naG5ieKVeGRxgio69+1rQ7DWYfLvoFcgfLIOHX6GvMvEfgO/07dNYZvLYc4UfvFHuO/wCH5V41fAVKWsdUfYYHPaGJtGp7svw+846igggkEYI4waSuA9wWiikoAWikpaACikooAWve/CiunhrTFk+99nTr9OK8Q0awfU9UtrOPOZXCkjsO5/AZNfQUUaxRrGgAVQAB6CvWyuDvKfyPlOJqqtTpddX+g+iiivYPkgooooAKKKKACiiigAooooAKKKKACiiigAooooAKKKKACiiigAooooAKKKKACiiigAooooAKKKKACiiigAooooAKKKKACiiigAooooAKKKKACiiigAooooAKKKKACiiigAooooAKKKKACiiigAooooAKKKKACiiigAooooAKKKKACiiigAooooAKKKKACiiigAooooAKr39pFfWc1rcLuilUow+tWKKTV1ZjTcXdbngHiHSJ9E1OS0uASAcxvjh17Gs2vevEmhWuvWBguBtkXmOUDlD/AIe1eMa9od9olyYr2I7CfklXlH+h/pXz+LwkqLuvhPvsqzWGMgoTdpr8fNGZRRRXEeyFFFdV4c8E6jq22WcGztTzvkHzMPZf6mtKdKVR8sFcwr4mlh489WVkcvFG80ixxIzyMcKqjJJ9hXeeG/h7cXG2fWXNvF1EK/fP1Pb+f0ru9B8O6dokWLOEGUjDTPy7fj2+grYr1qGXRj71XV9j5PHcQzqXhhlyrv1/4BU03T7TTbYQWMCQxDso6+5Pc1boor00klZHzcpOT5pO7CiiimIKKKKACiiigAooooAKKKKACiiigDn/ABD4T03WgzyR+TdHpPGMH8R3ry/xD4S1LRd0jx+faj/ltEMgD/aHb+XvXuFIQCMEZrkr4KnW12Z62BzjEYS0b80ez/TsfN9FexeIvAun6nuls8Wd0ecoPkY+6/4V5lrvh/UdFlK3sBEecLKnKN+P9DXjV8JUo6tXXc+wwWa4fGaRdpdn/WplUUUVynpBRT4YpJ5VihRpJGOFVRkk/SvTPBXgf7M8d9rSqZR80dv1Cn1b1PtW9DDzrStE4sbj6WDhzVHr0XVlj4a+HH0+3OpXqbbmZcRow5RPX6n+Vd1RRX0VGlGlBQifnuLxU8VVdWe7CiiitTmCiiigAooooAKKKKACiiigAooooAKKKKACiiigAooooAKKKKACiiigAooooAKKKKACiiigAooooAKKKKACiiigAooooAKKKKACiiigAooooAKKKKACiiigAooooAKKKKACiiigAooooAKKKKACiiigAooooAKKKKACiiigAooooAKKKKACiiigAooooAKKKKACiiigAooooAKiubeG6haG5iSWJuqOoIP4VLRQ1cabTujitT+Hel3LM9nJLZsf4VO9fyPP61kJ8MpPM+fVE8v1EPP869MorllgqEndxPSp5zjaceVVPvs/zOc0LwfpWkFZEi8+4HSWb5iD7DoK6Oiit4U401aKscNavUry56sm35hRRRVmQUUUUAFFFFABRRRQAUUUUAFFFFABRRRQAUUUUAFFFFABTJY0ljZJUV0YYKsMgj3p9FAbHH6r8P8ASbyQyWxks3PURnK/kf6VTtfhrp6Nm5vLiYeigJn+dd5RXM8JRbu4noRzXGRjyKo7f113M3SNE07SUxYWscTEYL9WP1J5rSoorojFRVoqxxTqSqS5pu78wooopkBRRRQAUUUUAFFFFABRRRQAUUUUAFFFFABRRRQAUUUUAFFFFABRRRQAUUUUAFFFFABRRRQAUUUUAFFFFABRRRQAUUUUAFFFFABRRRQAUUUUAFFFFABRRRQAUUUUAFFFFABRRRQAUUUUAFFFFABRRRQAUUUUAFFFFABRRRQAUUUUAFFFFABRRRQAUUUUAFFFFABRRRQAUUUUAFFFFABRRRQAUUUUAFFFFABRRRQAUUUUAFFFFABRRRQAUUUUAFFFFABRRRQAUUUUAFFFFABRRRQAUUUUAFFFFABRRRQAUUUUAFFFFABRRRQAUUUUAFFFFABRRRQAUUUUAFFFFABRRRQAUUUUAFFFFABRRRQAUUUUAFFFFABRRRQAUUUUAFFFFABRRRQAUUUUAFFFFABRRRQAUUUUAFFFFABRRRQAUUUUAFFFFABRRRQAUUUUAFFFFABRRRQAUUUUAFFFFABRRiigAooooAKKKKACiiigAooooAKKKKADvRRRQAUUUUAFFFFABRRRQAUUUUAFFFFABRRRQAUUUUAFFFFABRRRQAUUUUAFFFFACUtFFABRRRQAUUUUAFFFFABRRRQAUUUUAFFFFABRRRQAUUUUAFFFFABRRRQAUUUUAFFFFABRRRQAUUUUAFFFFABRRRQAUUUUAFFFFABRRRQAUUUUAFFFFABRRRQAUUUUAFFFFABRRRQAUUUUAFFFFABRRRQAUUUUAFFFFABRRRQAUUUUAFFFFABRRRQAUUUUAFFFFABRRRQAUUUUAFFFFABRRRQAUUUUAFFFFABRRRQAUUUUAFFFFABRRRQAUUUUAFFFFABRRRQAUUUdqACiiigAooooAKKKKACiiigAooooAKKKKACiiigAooooAKKKKACiiigAooooAKKKKACiiigAooooAKKKKACiiigAooooAKKKKACiiigAooooAKKKKACiiigAooooAKKKKACiiigAooooAKKKKACiiigAooooAKKKKACiiigAooooAKKKKACiiigAooooAKKKKACiiigAooooAKKKKACiiigAooooAKKKKACiiigAooooAKKKKACiiigAooooAKKKKACiiigAooooAKKKKACiiigAooooAKKKKACiiigAooooAKKKKACiiigAooooAKKKKACiiigAooooAKKKKACiiigAooooAKKKKACiiigAooooAKKKKACiiigAooooAKKKKACiiigAooooAKKKKACiiigAooooAKKKKACiiigAooooAKKKKACiiigAooooAKKKKACiiigAooooAKKKKACiiigAooooAKKKKACiiigAooooAKKKKACiiigAooooAKKKKACij8qKACiiigAooooAKKKKACiiigAooooAKKKKACiiigAooooAKKKKACiiigAooooAKKKKACiiigAooooAKKKKACiiigAooooAKKKKACiiigAooooAKKKKACiiigAooooAKKKKACiiigAooooAKKKKACiiigAooooAKKKKACiiigAooooAKKKKACiiigAooooAKKKKACiiigAooooAKKKKACiiigAooooAKKKKACiiigAooooAKKKKACiiigAooooAKKKKACiiigAooooAKKKKACiiigAooooAKKKKACiiigAooooAKKKKACiiigAooooAKKKKACiiigAooooAKKKKACiiigAooooAKKKKACiiigAooooAKKKKACiiigAooooAKKKKACiiigAooooAKKKKACiiigAooooAKKKKACiiigAooooAKKKKACiiigAooooAKKKKACiiigAooooAKKKKACiiigAooooAKKKKACiiigAooooAKKKKACiiigAooooAKKKKACiiigAooooAKKKKACiiigAooooAKKKKACiiigAooooAKKKKACiiigAooooAKKKKACiiigAooooAKKKKACiiigAooooAKKKKACiiigAooooAKKKKACiiigAooooAKKKKACiiigAooooAKKKKACiiigAooooAKKKKACiiigAooooAKKKKACiiigAooooAKKKKACiiigAooooAKKKKACiiigAooooAKKKKACiiigAooooAKKKKACiiigAooooAKKKKACiiigAooooAKKKKACiiigAooooAKKKKACiiigAooooAKKKKACiiigAooooAKKKKACiiigAooooAKKKKACiiigAooooAKKKKACiiigAooooAKKKKACiiigAooooAKKKKACiiigAooooAKKKKACiiigAooooAKKKKACiiigAooooAKKKKACiiigAooooAKKKKACiiigAooooAKKKKACiiigAooooAKKKKACiiigAooooAKKKKACiiigAooooAKKKKACiiigAooooAKKKKACiiigAooooAKKKKACiiigAooooAKKKKACiiigAooooAKKKKACiiigAooooAKKKKACiiigAooooAKKKKACiiigAooooAKKKKACiiigAooooAKKKKACiiigAooooAKKKKACiiigAooooAKKKKACiiigAooooAKKKKACiiigAooooAKKKKACiiigAooooAKKKKACiiigAooooAKKKKACiiigAooooAKKKKACiiigAooooAKKKKACiiigAooooAKKKKACiiigAooooAKKKKACiiigAooooAKKKKACiiigAooooAKKKKACiiigAooooAKKKKACiiigAooooAKKKKACiiigAooooAKKKKACiiigAooooAKKKKACiiigAooooAKKKKACiiigAooooAKKKKACiiigAooooAKKKKACiiigAooooAKKKKACiiigAooooAKKKKACiiigAooooAKKKKACiiigAooooAKKKKACiiigAooooAKKKKACiiigAooooAKKKKACiiigAooooAKKKKACiiigAooooAKKKKACiiigAooooAKKKKACiiigAooooAKKKKACiiigAooooAKKKKACiiigAooooAKKKKACiiigAooooAKKKKACiiigAooooAKKKKACiiigAooooAKKKKACiiigAooooAKKKKACiiigAooooAKKKKACiiigAooooAKKKKACiiigAooooAKKKKACiiigAooooAKKKKACiiigAooooAKKKKACiiigAooooAKKKKACiiigAooooAKKKKACiiigAooooAKKKKACiiigAooooAKKKKACiiigAooooAKKKKACiiigAooooAKKKKACiiigAooooAKKKKACiiigAooooAKKKKACiiigAooooAKKKKACiiigAooooAKKKKACiiigAooooAKKKKACiiigAooooAKKKKACiiigAooooAKKKKACiiigAooooAKKKKACiiigAooooAKKKKACiiigAooooAKKKKACiiigAooooAKKKKACiiigAooooAKKKKACiiigAooooAKKKKACiiigAooooAKKKKACiiigAooooAKKKKACiiigAooooAKKKKACiiigAooooAKKKKACiiigAooooAKKKKACiiigAooooAKKKKACiiigAooooAKKKKACiiigAooooAKKKKACiiigAooooAKKKKACiiigAooooAKKKKACiiigAooooAKKKKACiiigAooooAKKKKACiiigAooooAKKKKACiiigAooooAKKKKACiiigAooooAKKKKACiiigAooooA/9k=;" vertex="1" parent="1">
          <mxGeometry x="611" y="202" width="92.22" height="69.22" as="geometry" />
        </mxCell>
        <mxCell id="w5QW8rx5QOI1nEsf-yty-6" value="Cloud&#xa;Storage" style="sketch=0;html=1;verticalAlign=top;labelPosition=center;verticalLabelPosition=bottom;align=center;spacingTop=-6;fontSize=11;fontStyle=1;fontColor=#999999;shape=image;aspect=fixed;imageAspect=0;image=data:image/svg+xml,PHN2ZyB4bWxucz0iaHR0cDovL3d3dy53My5vcmcvMjAwMC9zdmciIHhtbG5zOnY9Imh0dHBzOi8vdmVjdGEuaW8vbmFubyIgd2lkdGg9IjIwIiBoZWlnaHQ9IjE2IiB2aWV3Qm94PSIwIDAgMjAgMTYiPiYjeGE7CTxzdHlsZSB0eXBlPSJ0ZXh0L2NzcyI+JiN4YTsJLnN0MHtmaWxsOiM0Mjg1ZjQ7fSYjeGE7CS5zdDF7ZmlsbDojNjY5ZGY2O30mI3hhOwkuc3Qye2ZpbGw6I2FlY2JmYTt9JiN4YTsJLnN0M3tmaWxsOiNmZmY7fSYjeGE7CTwvc3R5bGU+JiN4YTsJPHBhdGggY2xhc3M9InN0MiIgZD0iTTAgMGgyMHY3SDB6Ii8+JiN4YTsJPHBhdGggY2xhc3M9InN0MSIgZD0iTTE4IDBoMnY3aC0yeiIvPiYjeGE7CTxwYXRoIGNsYXNzPSJzdDAiIGQ9Ik0xOCA3bDItN2gtMnoiLz4mI3hhOwk8cGF0aCBjbGFzcz0ic3QxIiBkPSJNMCAwaDJ2N0gweiIvPiYjeGE7CTxnIGNsYXNzPSJzdDMiPiYjeGE7CQk8cGF0aCBkPSJNNCAzaDZ2MUg0eiIvPiYjeGE7CQk8cmVjdCB4PSIxMyIgeT0iMiIgd2lkdGg9IjMiIGhlaWdodD0iMyIgcng9IjEuNSIvPiYjeGE7CTwvZz4mI3hhOwk8cGF0aCBjbGFzcz0ic3QyIiBkPSJNMCA5aDIwdjdIMHoiLz4mI3hhOwk8cGF0aCBjbGFzcz0ic3QxIiBkPSJNMTggOWgydjdoLTJ6Ii8+JiN4YTsJPHBhdGggY2xhc3M9InN0MCIgZD0iTTE4IDE2bDItN2gtMnoiLz4mI3hhOwk8cGF0aCBjbGFzcz0ic3QxIiBkPSJNMCA5aDJ2N0gweiIvPiYjeGE7CTxnIGNsYXNzPSJzdDMiPiYjeGE7CQk8cGF0aCBkPSJNNCAxMmg2djFINHoiLz4mI3hhOwkJPHJlY3QgeD0iMTMiIHk9IjExIiB3aWR0aD0iMyIgaGVpZ2h0PSIzIiByeD0iMS41Ii8+JiN4YTsJPC9nPiYjeGE7PC9zdmc+;" vertex="1" parent="1">
          <mxGeometry x="413" y="339" width="92" height="74.48" as="geometry" />
        </mxCell>
        <mxCell id="w5QW8rx5QOI1nEsf-yty-7" value="Looker" style="sketch=0;html=1;verticalAlign=top;labelPosition=center;verticalLabelPosition=bottom;align=center;spacingTop=-6;fontSize=11;fontStyle=1;fontColor=#999999;shape=image;aspect=fixed;imageAspect=0;image=data:image/svg+xml,PHN2ZyB4bWxucz0iaHR0cDovL3d3dy53My5vcmcvMjAwMC9zdmciIGlkPSJzdmc4OTgwMSIgdmVyc2lvbj0iMS4xIiB2aWV3Qm94PSIwIDAgMjA4LjA1NjU1IDMzNC42MTMxNiIgaGVpZ2h0PSIzMzQuNjEzMTZtbSIgd2lkdGg9IjIwOC4wNTY1NW1tIj4mI3hhOyAgJiN4YTsgIDxkZWZzIGlkPSJkZWZzODk3OTgiLz4mI3hhOyAgPGcgdHJhbnNmb3JtPSJ0cmFuc2xhdGUoLTQuMjQ2MjUyNCwxNS42NzE5MTEpIiBpZD0ibGF5ZXIxIj4mI3hhOyAgICA8cGF0aCBpZD0icGF0aDkxODAyIiB0cmFuc2Zvcm09InNjYWxlKDAuMjY0NTgzMzMpIiBkPSJtIDQwOS4yMjI2Niw0MTkuMDk5NjEgYyAtMzYuNjA4MTEsMCAtNzIuMDc2NjcsNS4wNzUzIC0xMDUuNzUzOTEsMTQuNTMxMjUgbCA0OS4wMzUxNiwxMjAuMDQxMDIgYyAxOC4yNjE3MiwtMy45Mzg5OSAzNy4yMjE5NiwtNi4wNjgzNiA1Ni43MTg3NSwtNi4wNjgzNiAxNDYuOTM1MTQsMCAyNjQuNjc3NzMsMTE3LjczNDc3IDI2NC42Nzc3MywyNjQuNjY5OTIgMCwxNDYuOTM1MTQgLTExNy43NDI1OSwyNjQuNjY5OTYgLTI2NC42Nzc3MywyNjQuNjY5OTYgLTE0Ni45MzUxNiwwIC0yNjQuNjY5OTEsLTExNy43MzQ4MiAtMjY0LjY2OTkzLC0yNjQuNjY5OTYgMCwtOTkuMTg3NjMgNTMuNjg5ODMsLTE4NS4wMDU5NiAxMzMuNzU1ODYsLTIzMC4zNDc2NiBMIDIyOS42MjY5NSw0NjIuNzUgQyAxMDMuMDI0Nyw1MjguMjI0NzQgMTYuMDQ4ODI3LDY2MC41MDUyMyAxNi4wNDg4MjgsODEyLjI3MzQ0IGMgMi4zZS01LDIxNi4zODM3NiAxNzYuNzkwMDYyLDM5My4xNzM4NiAzOTMuMTczODMyLDM5My4xNzM4NiAyMTYuMzgzNzMsMCAzOTMuMTgxNjQsLTE3Ni43OTAxIDM5My4xODE2NCwtMzkzLjE3Mzg2IDNlLTUsLTIxNi4zODM3OCAtMTc2Ljc5Nzg3LC0zOTMuMTczODMgLTM5My4xODE2NCwtMzkzLjE3MzgzIHoiIHN0eWxlPSJjb2xvcjojMDAwMDAwO29wYWNpdHk6MTtmaWxsOiM1OTg2ZjI7ZmlsbC1vcGFjaXR5OjE7c3Ryb2tlLXdpZHRoOjMuNzc5NTM7c3Ryb2tlLWxpbmVqb2luOnJvdW5kOy1pbmtzY2FwZS1zdHJva2U6bm9uZSIvPiYjeGE7ICAgIDxwYXRoIGQ9Im0gMTg5Ljk0MzM2LDg2LjI1IGMgLTk1LjEzMDMzMSwwIC0xNzMuMTc5Njg4LDc4LjA1NTIyIC0xNzMuMTc5Njg4LDE3My4xODU1NSAtNmUtNiw5NS4xMzAzMyA3OC4wNDkzNTMsMTczLjE3OTY4IDE3My4xNzk2ODgsMTczLjE3OTY4IDkuMDE2MTgsMCAxNy44NzU4LC0wLjcwODMyIDI2LjUzMzIsLTIuMDU4NTkgbCAtMzQuODI4MTIsLTg1LjI2NTYyIGMgLTQ0LjE1NzMsLTQuMDg2NjkgLTc3Ljk1NTA4LC00MC41MDcwNSAtNzcuOTU1MDgsLTg1Ljg1NTQ3IDAsLTQ4LjE1MDM5IDM4LjA5OTYyLC04Ni4yNTU4NiA4Ni4yNSwtODYuMjU1ODYgMTMuMTU5NzcsMCAyNS41NTg4OCwyLjg2MjQ2IDM2LjY0NDUzLDcuOTgyNDIgbCA2NC41NTQ2OSwtNjEuOTE5OTIgQyAyNjIuNjA4MzcsOTguNTMzOTEgMjI3LjYyOTI5LDg2LjI1IDE4OS45NDMzNiw4Ni4yNSBaIG0gMTM4Ljg4ODY3LDcwLjE2MjExIC02My40Mjc3Myw2MC44MzU5NCBjIDYuODc2MzgsMTIuNDI2NzggMTAuNzg5MDYsMjYuNzg4MTUgMTAuNzg5MDYsNDIuMTg3NSAwLDIxLjc2NzEyIC03LjgwNDE1LDQxLjQ2NTQgLTIwLjc4NTE2LDU2LjUzMzIgbCAzNC41MjM0NCw4NC41MTk1MyBjIDQ0LjE3Mzg3LC0zMS40ODc1MSA3My4xOTE0MSwtODMuMDc4OTIgNzMuMTkxNDEsLTE0MS4wNTI3MyAwLC0zOC40ODM1NSAtMTIuNzgyLC03NC4xNjUzMiAtMzQuMjkxMDIsLTEwMy4wMjM0NCB6IiB0cmFuc2Zvcm09InNjYWxlKDAuMjY0NTgzMzMpIiBzdHlsZT0iY29sb3I6IzAwMDAwMDtvcGFjaXR5OjE7ZmlsbDojNmY5OGY0O2ZpbGwtb3BhY2l0eToxO3N0cm9rZS13aWR0aDozLjc3OTUzO3N0cm9rZS1saW5lam9pbjpyb3VuZDstaW5rc2NhcGUtc3Ryb2tlOm5vbmUiIGlkPSJwYXRoOTE3OTgiLz4mI3hhOyAgICA8cGF0aCBpZD0icGF0aDg5OTI4IiB0cmFuc2Zvcm09InNjYWxlKDAuMjY0NTgzMzMpIiBkPSJtIDQwNi4xMzY3MiwtNTkuMjMyNDIyIGMgLTU4LjgxNTQ3LDhlLTYgLTEwNy4xMDM1Miw0OC4yODgwNDUgLTEwNy4xMDM1MiwxMDcuMTAzNTE2IDAsMTguNDk0NDUxIDQuNzgxMDEsMzUuOTQ1MDE3IDEzLjE1NjI1LDUxLjE4MzU5NCBsIDQ0LjMxMjUsLTQyLjUwMzkwNyBjIC0wLjQ3NTY3LC0yLjgyMDc3NSAtMC43NzUzOSwtNS43MDc1NjQgLTAuNzc1MzksLTguNjc5Njg3IDAsLTI4LjE3NjM4IDIyLjIzMzc4LC01MC40MTAxNTI1IDUwLjQxMDE2LC01MC40MTAxNTY1IDI4LjE3NjM4LC00ZS02IDUwLjQxMDE1LDIyLjIzMzc3MDUgNTAuNDEwMTYsNTAuNDEwMTU2NSAwLDI4LjE3NjM4MSAtMjIuMjMzNzgsNTAuNDEyMTEzIC01MC40MTAxNiw1MC40MTIxMDkgLTUuMDY4NjksLTEwZS03IC05LjkzNDE3LC0wLjc0NTYzMSAtMTQuNTIzNDQsLTIuMDg5ODQ0IGwgLTQzLjM2MTMzLDQxLjU5MTgwMSBjIDE2LjczMjIzLDEwLjg0Nzk1IDM2LjYxMTIzLDE3LjE4OTQ1IDU3Ljg4NDc3LDE3LjE4OTQ1IDU4LjgxNTQ5LDEwZS02IDEwNy4xMDM1MSwtNDguMjg4MDQgMTA3LjEwMzUxLC0xMDcuMTAzNTE2IDAsLTU4LjgxNTQ4MyAtNDguMjg4MDIsLTEwNy4xMDM1MjMgLTEwNy4xMDM1MSwtMTA3LjEwMzUxNiB6IiBzdHlsZT0iY29sb3I6IzAwMDAwMDtvcGFjaXR5OjE7ZmlsbDojZDZlM2ZiO2ZpbGwtb3BhY2l0eToxO3N0cm9rZS13aWR0aDozLjc3OTUzO3N0cm9rZS1saW5lam9pbjpyb3VuZDstaW5rc2NhcGUtc3Ryb2tlOm5vbmUiLz4mI3hhOyAgPC9nPiYjeGE7PC9zdmc+;" vertex="1" parent="1">
          <mxGeometry x="816" y="308" width="78" height="126" as="geometry" />
        </mxCell>
        <mxCell id="w5QW8rx5QOI1nEsf-yty-8" style="edgeStyle=orthogonalEdgeStyle;rounded=0;orthogonalLoop=1;jettySize=auto;html=1;exitX=1;exitY=0;exitDx=0;exitDy=0;" edge="1" parent="1" source="w5QW8rx5QOI1nEsf-yty-5" target="w5QW8rx5QOI1nEsf-yty-5">
          <mxGeometry relative="1" as="geometry" />
        </mxCell>
        <mxCell id="w5QW8rx5QOI1nEsf-yty-13" value="" style="endArrow=classic;html=1;rounded=0;strokeColor=#FFFFFF;endSize=12;startSize=10;" edge="1" parent="1">
          <mxGeometry width="50" height="50" relative="1" as="geometry">
            <mxPoint x="636" y="321" as="sourcePoint" />
            <mxPoint x="636.3899999999999" y="261" as="targetPoint" />
          </mxGeometry>
        </mxCell>
        <mxCell id="w5QW8rx5QOI1nEsf-yty-14" value="" style="endArrow=classic;html=1;rounded=0;strokeColor=#FFFFFF;endSize=12;startSize=10;" edge="1" parent="1">
          <mxGeometry width="50" height="50" relative="1" as="geometry">
            <mxPoint x="666" y="265" as="sourcePoint" />
            <mxPoint x="666" y="321" as="targetPoint" />
          </mxGeometry>
        </mxCell>
        <mxCell id="w5QW8rx5QOI1nEsf-yty-15" value="" style="endArrow=classic;html=1;rounded=0;strokeColor=#FFFFFF;endSize=12;startSize=10;" edge="1" parent="1">
          <mxGeometry width="50" height="50" relative="1" as="geometry">
            <mxPoint x="703.22" y="373" as="sourcePoint" />
            <mxPoint x="800.22" y="373" as="targetPoint" />
          </mxGeometry>
        </mxCell>
        <mxCell id="w5QW8rx5QOI1nEsf-yty-16" value="" style="endArrow=classic;html=1;rounded=0;strokeColor=#FFFFFF;endSize=12;startSize=10;" edge="1" parent="1">
          <mxGeometry width="50" height="50" relative="1" as="geometry">
            <mxPoint x="421" y="256" as="sourcePoint" />
            <mxPoint x="421" y="285" as="targetPoint" />
          </mxGeometry>
        </mxCell>
        <mxCell id="w5QW8rx5QOI1nEsf-yty-17" value="" style="endArrow=classic;html=1;rounded=0;strokeColor=#FFFFFF;endSize=12;startSize=10;" edge="1" parent="1">
          <mxGeometry width="50" height="50" relative="1" as="geometry">
            <mxPoint x="530" y="375.74" as="sourcePoint" />
            <mxPoint x="586" y="375.74" as="targetPoint" />
          </mxGeometry>
        </mxCell>
        <mxCell id="w5QW8rx5QOI1nEsf-yty-19" value="" style="endArrow=classic;html=1;rounded=0;strokeColor=#FFFFFF;endSize=12;startSize=10;" edge="1" parent="1">
          <mxGeometry width="50" height="50" relative="1" as="geometry">
            <mxPoint x="567.56" y="558" as="sourcePoint" />
            <mxPoint x="567.56" y="521" as="targetPoint" />
          </mxGeometry>
        </mxCell>
        <mxCell id="w5QW8rx5QOI1nEsf-yty-21" value="&lt;font color=&quot;#ffffff&quot;&gt;Source Data from S3&lt;/font&gt;" style="text;html=1;align=center;verticalAlign=middle;whiteSpace=wrap;rounded=0;" vertex="1" parent="1">
          <mxGeometry x="135" y="415.24" width="77" height="30" as="geometry" />
        </mxCell>
        <mxCell id="w5QW8rx5QOI1nEsf-yty-22" value="" style="endArrow=classic;html=1;rounded=0;strokeColor=#FFFFFF;endSize=12;startSize=10;" edge="1" parent="1">
          <mxGeometry width="50" height="50" relative="1" as="geometry">
            <mxPoint x="224" y="375.74" as="sourcePoint" />
            <mxPoint x="265" y="375.74" as="targetPoint" />
          </mxGeometry>
        </mxCell>
        <mxCell id="w5QW8rx5QOI1nEsf-yty-23" value="" style="endArrow=classic;html=1;rounded=0;strokeColor=#FFFFFF;endSize=12;startSize=10;" edge="1" parent="1">
          <mxGeometry width="50" height="50" relative="1" as="geometry">
            <mxPoint x="346" y="375.74" as="sourcePoint" />
            <mxPoint x="402" y="375.74" as="targetPoint" />
          </mxGeometry>
        </mxCell>
      </root>
    </mxGraphModel>
  </diagram>
</mxfile>
